<?xml version="1.0" encoding="UTF-8" standalone="no"?>
<!-- Created with Inkscape (http://www.inkscape.org/) -->

<svg
   xmlns:dc="http://purl.org/dc/elements/1.1/"
   xmlns:cc="http://creativecommons.org/ns#"
   xmlns:rdf="http://www.w3.org/1999/02/22-rdf-syntax-ns#"
   xmlns:svg="http://www.w3.org/2000/svg"
   xmlns="http://www.w3.org/2000/svg"
   xmlns:sodipodi="http://sodipodi.sourceforge.net/DTD/sodipodi-0.dtd"
   xmlns:inkscape="http://www.inkscape.org/namespaces/inkscape"
   width="1200"
   height="200"
   id="svg3729"
   version="1.1"
   inkscape:version="0.47 r22583"
   sodipodi:docname="New document 4">
  <defs
     id="defs3731">
    <inkscape:perspective
       sodipodi:type="inkscape:persp3d"
       inkscape:vp_x="0 : 526.18109 : 1"
       inkscape:vp_y="0 : 1000 : 0"
       inkscape:vp_z="744.09448 : 526.18109 : 1"
       inkscape:persp3d-origin="372.04724 : 350.78739 : 1"
       id="perspective3737" />
    <inkscape:perspective
       id="perspective3747"
       inkscape:persp3d-origin="0.5 : 0.33333333 : 1"
       inkscape:vp_z="1 : 0.5 : 1"
       inkscape:vp_y="0 : 1000 : 0"
       inkscape:vp_x="0 : 0.5 : 1"
       sodipodi:type="inkscape:persp3d" />
    <inkscape:perspective
       id="perspective3812"
       inkscape:persp3d-origin="0.5 : 0.33333333 : 1"
       inkscape:vp_z="1 : 0.5 : 1"
       inkscape:vp_y="0 : 1000 : 0"
       inkscape:vp_x="0 : 0.5 : 1"
       sodipodi:type="inkscape:persp3d" />
    <inkscape:perspective
       id="perspective3848"
       inkscape:persp3d-origin="0.5 : 0.33333333 : 1"
       inkscape:vp_z="1 : 0.5 : 1"
       inkscape:vp_y="0 : 1000 : 0"
       inkscape:vp_x="0 : 0.5 : 1"
       sodipodi:type="inkscape:persp3d" />
    <inkscape:perspective
       id="perspective3872"
       inkscape:persp3d-origin="0.5 : 0.33333333 : 1"
       inkscape:vp_z="1 : 0.5 : 1"
       inkscape:vp_y="0 : 1000 : 0"
       inkscape:vp_x="0 : 0.5 : 1"
       sodipodi:type="inkscape:persp3d" />
    <inkscape:perspective
       id="perspective3941"
       inkscape:persp3d-origin="0.5 : 0.33333333 : 1"
       inkscape:vp_z="1 : 0.5 : 1"
       inkscape:vp_y="0 : 1000 : 0"
       inkscape:vp_x="0 : 0.5 : 1"
       sodipodi:type="inkscape:persp3d" />
    <inkscape:perspective
       id="perspective4037"
       inkscape:persp3d-origin="0.5 : 0.33333333 : 1"
       inkscape:vp_z="1 : 0.5 : 1"
       inkscape:vp_y="0 : 1000 : 0"
       inkscape:vp_x="0 : 0.5 : 1"
       sodipodi:type="inkscape:persp3d" />
    <inkscape:perspective
       id="perspective4104"
       inkscape:persp3d-origin="0.5 : 0.33333333 : 1"
       inkscape:vp_z="1 : 0.5 : 1"
       inkscape:vp_y="0 : 1000 : 0"
       inkscape:vp_x="0 : 0.5 : 1"
       sodipodi:type="inkscape:persp3d" />
    <inkscape:perspective
       id="perspective4675"
       inkscape:persp3d-origin="0.5 : 0.33333333 : 1"
       inkscape:vp_z="1 : 0.5 : 1"
       inkscape:vp_y="0 : 1000 : 0"
       inkscape:vp_x="0 : 0.5 : 1"
       sodipodi:type="inkscape:persp3d" />
    <inkscape:perspective
       id="perspective4697"
       inkscape:persp3d-origin="0.5 : 0.33333333 : 1"
       inkscape:vp_z="1 : 0.5 : 1"
       inkscape:vp_y="0 : 1000 : 0"
       inkscape:vp_x="0 : 0.5 : 1"
       sodipodi:type="inkscape:persp3d" />
    <inkscape:perspective
       id="perspective4939"
       inkscape:persp3d-origin="0.5 : 0.33333333 : 1"
       inkscape:vp_z="1 : 0.5 : 1"
       inkscape:vp_y="0 : 1000 : 0"
       inkscape:vp_x="0 : 0.5 : 1"
       sodipodi:type="inkscape:persp3d" />
  </defs>
  <sodipodi:namedview
     id="base"
     pagecolor="#ffffff"
     bordercolor="#666666"
     borderopacity="1.0"
     inkscape:pageopacity="0.0"
     inkscape:pageshadow="2"
     inkscape:zoom="1"
     inkscape:cx="636.60822"
     inkscape:cy="55.835571"
     inkscape:document-units="px"
     inkscape:current-layer="layer1"
     showgrid="false"
     inkscape:snap-global="false"
     inkscape:window-width="1680"
     inkscape:window-height="994"
     inkscape:window-x="-4"
     inkscape:window-y="-4"
     inkscape:window-maximized="1">
    <inkscape:grid
       type="xygrid"
       id="grid4118"
       empspacing="5"
       visible="true"
       enabled="true"
       snapvisiblegridlinesonly="true" />
  </sodipodi:namedview>
  <metadata
     id="metadata3734">
    <rdf:RDF>
      <cc:Work
         rdf:about="">
        <dc:format>image/svg+xml</dc:format>
        <dc:type
           rdf:resource="http://purl.org/dc/dcmitype/StillImage" />
        <dc:title></dc:title>
      </cc:Work>
    </rdf:RDF>
  </metadata>
  <g
     inkscape:label="Layer 1"
     inkscape:groupmode="layer"
     id="layer1"
     transform="translate(0,-852.36218)">
    <path
       inkscape:transform-center-y="26.237191"
       inkscape:transform-center-x="11.887"
       sodipodi:nodetypes="ccccccccc"
       id="path5225"
       d="m 1092.0652,918.83996 6.2635,-0.0732 4.0922,7.28884 -24.6714,20.97216 12.9529,26.62746 -8.8878,4.90092 -13.9248,-30.11509 0.5543,-5.6783 23.6211,-23.92277 z"
       style="fill:#ffffff;stroke:#000000;stroke-width:1;stroke-linecap:round;stroke-linejoin:round;stroke-miterlimit:4;stroke-opacity:1;stroke-dasharray:none" />
    <path
       inkscape:transform-center-y="49.994846"
       inkscape:transform-center-x="12.6417"
       id="path5227"
       d="m 1080.0412,974.85448 8.7189,-4.87075"
       style="fill:none;stroke:#000000;stroke-width:1;stroke-linecap:round;stroke-linejoin:round;stroke-miterlimit:4;stroke-opacity:1;stroke-dasharray:none" />
    <path
       sodipodi:nodetypes="csccsscc"
       id="path5229"
       d="m 1091.086,973.66749 c 0,0 3.2951,0.50943 4.0888,1.53107 0.6188,0.79655 0.2385,3.01652 0.2385,3.01652 l 1.5236,1.31952 c 0,0 -3.9179,5.69341 -6.8374,5.50282 -2.3,-0.15014 -3.7143,-2.95375 -4.7773,-4.99889 -0.462,-0.8888 -0.5509,-2.77426 -0.5509,-2.77426 l 6.3147,-3.59682 z"
       style="fill:#ffebcf;fill-opacity:1;stroke:#000000;stroke-width:1;stroke-linecap:round;stroke-linejoin:round;stroke-miterlimit:4;stroke-opacity:1;stroke-dasharray:none"
       inkscape:transform-center-x="6.1882499"
       inkscape:transform-center-y="56.930516" />
    <path
       sodipodi:nodetypes="cssss"
       id="path5231"
       d="m 1095.3799,978.16723 c 0,0 -1.2127,1.97457 -2.1589,1.86954 -0.9817,-0.10891 -3.2426,-2.69283 -2.4413,-3.27044 0,0 0.3204,-1.41987 0.9314,-1.34852 0.3152,0.0368 1.8698,1.87548 1.8698,1.87548"
       style="fill:none;stroke:#000000;stroke-width:1;stroke-linecap:round;stroke-linejoin:round;stroke-miterlimit:4;stroke-opacity:1;stroke-dasharray:none"
       inkscape:transform-center-x="4.0468798"
       inkscape:transform-center-y="55.303753" />
    <path
       id="path5233"
       d="m 1086.0526,981.60895 5.3068,-6.06941"
       style="fill:none;stroke:#000000;stroke-width:1;stroke-linecap:round;stroke-linejoin:round;stroke-miterlimit:4;stroke-opacity:1;stroke-dasharray:none"
       inkscape:transform-center-x="8.33635"
       inkscape:transform-center-y="56.149986" />
    <path
       sodipodi:nodetypes="cccccccccc"
       id="path5169"
       d="m 1077.5003,975.71356 15.3765,-15.83983 5.954,6.00565 22.4691,28.33664 21.5384,46.10248 -15.3897,5.7822 -19.4682,-40.1554 -15.8878,-18.43669 -5.0371,-3.4252 -9.5552,-8.36985 z"
       style="fill:#b3b3b3;stroke:#000000;stroke-width:1;stroke-linecap:round;stroke-linejoin:miter;stroke-miterlimit:4;stroke-opacity:1;stroke-dasharray:none"
       inkscape:transform-center-x="-20.39939"
       inkscape:transform-center-y="28.588015" />
    <path
       inkscape:transform-center-y="-4.3766"
       inkscape:transform-center-x="-5.28314"
       style="fill:#000000;stroke:#000000;stroke-width:1;stroke-linecap:round;stroke-linejoin:round;stroke-miterlimit:4;stroke-opacity:1;stroke-dasharray:none"
       d="m 1130.1037,1051.5644 -2.375,-4.9864 c 0,0 10.8818,-4.2401 15.9466,-7.106 3.2214,-1.8228 9.0973,-6.3674 9.0973,-6.3674 l 3.6049,4.6336 c 0,0 -7.3479,5.3057 -11.3291,7.442 -4.7734,2.5611 -14.9447,6.3842 -14.9447,6.3842 z"
       id="path5189"
       sodipodi:nodetypes="ccsccsc" />
    <path
       style="fill:none;stroke:#000000;stroke-width:1;stroke-linecap:round;stroke-linejoin:round;stroke-miterlimit:4;stroke-opacity:1;stroke-dasharray:none"
       d="m 855.21311,942.22985 9.96465,0.66984"
       id="path5097"
       inkscape:transform-center-x="36.165299"
       inkscape:transform-center-y="34.516242" />
    <path
       style="fill:#ffebcf;fill-opacity:1;stroke:#000000;stroke-width:1;stroke-linecap:round;stroke-linejoin:round;stroke-miterlimit:4;stroke-opacity:1;stroke-dasharray:none"
       d="m 865.11941,947.25587 c 0,0 2.4847,2.22347 2.59309,3.5126 0.0845,1.0051 -1.44452,2.65886 -1.44452,2.65886 l 0.55793,1.93684 c 0,0 -6.3884,2.63704 -8.73192,0.88576 -1.84631,-1.37972 -1.50355,-4.50111 -1.27984,-6.79516 0.0972,-0.997 1.0506,-2.62606 1.0506,-2.62606 l 7.25466,0.42716 z"
       id="path5125"
       sodipodi:nodetypes="csccsscc" />
    <path
       style="fill:none;stroke:#000000;stroke-width:1;stroke-linecap:round;stroke-linejoin:round;stroke-miterlimit:4;stroke-opacity:1;stroke-dasharray:none"
       d="m 866.26608,953.36904 c 0,0 -2.09315,0.99419 -2.82911,0.39036 -0.76363,-0.62654 -1.25035,-4.02521 -0.26372,-4.07267 0,0 1.04269,-1.01559 1.51606,-0.62266 0.24416,0.20268 0.54505,2.59162 0.54505,2.59162"
       id="path5127"
       sodipodi:nodetypes="cssss" />
    <path
       style="fill:none;stroke:#000000;stroke-width:1;stroke-linecap:round;stroke-linejoin:round;stroke-miterlimit:4;stroke-opacity:1;stroke-dasharray:none"
       d="m 856.5704,951.16947 7.75766,-2.19514"
       id="path5129" />
    <path
       style="fill:none;stroke:#000000;stroke-width:1px;stroke-linecap:round;stroke-linejoin:round;stroke-opacity:1"
       d="m 868.69184,917.54978 -1.9427,-1.51276"
       id="path5135" />
    <path
       inkscape:transform-center-y="17.048966"
       inkscape:transform-center-x="18.624898"
       sodipodi:nodetypes="ccccccccc"
       id="path5141"
       d="m 895.82993,901.82593 5.29084,3.35323 -0.54297,8.34135 -32.11596,4.1319 -3.6573,29.38406 -10.12274,-0.73663 4.74382,-32.83777 3.56034,-4.45804 32.84397,-7.1781 z"
       style="fill:#ffffff;stroke:#000000;stroke-width:1;stroke-linecap:round;stroke-linejoin:round;stroke-miterlimit:4;stroke-opacity:1;stroke-dasharray:none" />
    <path
       inkscape:transform-center-y="34.516242"
       inkscape:transform-center-x="36.165299"
       id="path5143"
       d="m 855.21311,942.22985 9.96465,0.66984"
       style="fill:none;stroke:#000000;stroke-width:1;stroke-linecap:round;stroke-linejoin:round;stroke-miterlimit:4;stroke-opacity:1;stroke-dasharray:none" />
    <path
       sodipodi:nodetypes="csccsscc"
       id="path5145"
       d="m 865.11941,947.25587 c 0,0 2.4847,2.22347 2.59309,3.5126 0.0845,1.0051 -1.44452,2.65886 -1.44452,2.65886 l 0.55793,1.93684 c 0,0 -6.3884,2.63704 -8.73192,0.88576 -1.84631,-1.37972 -1.50355,-4.50111 -1.27984,-6.79516 0.0972,-0.997 1.0506,-2.62606 1.0506,-2.62606 l 7.25466,0.42716 z"
       style="fill:#ffebcf;fill-opacity:1;stroke:#000000;stroke-width:1;stroke-linecap:round;stroke-linejoin:round;stroke-miterlimit:4;stroke-opacity:1;stroke-dasharray:none" />
    <path
       sodipodi:nodetypes="cssss"
       id="path5147"
       d="m 866.26608,953.36904 c 0,0 -2.09315,0.99419 -2.82911,0.39036 -0.76363,-0.62654 -1.25035,-4.02521 -0.26372,-4.07267 0,0 1.04269,-1.01559 1.51606,-0.62266 0.24416,0.20268 0.54505,2.59162 0.54505,2.59162"
       style="fill:none;stroke:#000000;stroke-width:1;stroke-linecap:round;stroke-linejoin:round;stroke-miterlimit:4;stroke-opacity:1;stroke-dasharray:none" />
    <path
       id="path5149"
       d="m 856.5704,951.16947 7.75766,-2.19514"
       style="fill:none;stroke:#000000;stroke-width:1;stroke-linecap:round;stroke-linejoin:round;stroke-miterlimit:4;stroke-opacity:1;stroke-dasharray:none" />
    <path
       id="path5151"
       d="m 868.69184,917.54978 -1.9427,-1.51276"
       style="fill:none;stroke:#000000;stroke-width:1px;stroke-linecap:round;stroke-linejoin:round;stroke-opacity:1" />
    <path
       inkscape:transform-center-y="22.32479"
       inkscape:transform-center-x="-12.733476"
       style="fill:#b3b3b3;stroke:#000000;stroke-width:1;stroke-linecap:round;stroke-linejoin:miter;stroke-miterlimit:4;stroke-opacity:1;stroke-dasharray:none"
       d="m 877.66939,959.05343 15.33918,-12.40381 4.71384,7.02127 c 0,0 26.4833,12.52062 34.9877,20.78816 2.0334,1.97677 4.34864,6.44157 4.95874,9.2111 l 7.86426,35.69965 -13.33233,7.1085 -9.47968,-39.24002 c -15.27951,-4.92845 -36.02059,-7.42953 -45.69715,-14.84818 0,0 -1.5951,-3.97824 -1.55032,-6.06415 0.0543,-2.53167 2.19576,-7.27252 2.19576,-7.27252 z"
       id="path5093"
       sodipodi:nodetypes="cccssccccsc" />
    <path
       style="fill:#000000;stroke:#000000;stroke-width:1;stroke-linecap:round;stroke-linejoin:round;stroke-miterlimit:4;stroke-opacity:1;stroke-dasharray:none"
       d="m 935.34885,1031.8659 -2.90509,-4.6973 c 0,0 10.35392,-5.4027 15.07556,-8.8043 3.00316,-2.1637 8.34781,-7.3224 8.34781,-7.3224 l 4.08914,4.2122 c 0,0 -6.72464,6.0762 -10.44897,8.6342 -4.46525,3.0671 -14.15845,7.9776 -14.15845,7.9776 z"
       id="path5131"
       sodipodi:nodetypes="ccsccsc" />
    <path
       inkscape:transform-center-y="54.354133"
       inkscape:transform-center-x="15.782501"
       style="fill:#ffebcf;fill-opacity:1;stroke:#000000;stroke-width:1;stroke-linecap:round;stroke-linejoin:round;stroke-miterlimit:4;stroke-opacity:1;stroke-dasharray:none"
       d="m 680.55524,960.80945 c 0,0 3.11356,1.19305 3.67384,2.3591 0.43686,0.90914 -0.40313,2.99895 -0.40313,2.99895 l 1.21102,1.61123 c 0,0 -5.03078,4.73886 -7.84427,3.93678 -2.21657,-0.6319 -3.0077,-3.67076 -3.61545,-5.89413 -0.26415,-0.96627 0.0467,-2.82804 0.0467,-2.82804 l 6.9313,-2.18392 z"
       id="path5081"
       sodipodi:nodetypes="csccsscc" />
    <path
       inkscape:transform-center-y="53.123066"
       inkscape:transform-center-x="13.464142"
       style="fill:none;stroke:#000000;stroke-width:1;stroke-linecap:round;stroke-linejoin:round;stroke-miterlimit:4;stroke-opacity:1;stroke-dasharray:none"
       d="m 683.80342,966.1137 c 0,0 -1.60198,1.67432 -2.5047,1.37211 -0.93667,-0.31358 -2.60161,-3.31623 -1.69656,-3.71186 0,0 0.61275,-1.3203 1.195,-1.12166 0.30033,0.10245 1.4321,2.2277 1.4321,2.2277"
       id="path5083"
       sodipodi:nodetypes="cssss" />
    <path
       inkscape:transform-center-y="53.149741"
       inkscape:transform-center-x="17.842603"
       style="fill:none;stroke:#000000;stroke-width:1;stroke-linecap:round;stroke-linejoin:round;stroke-miterlimit:4;stroke-opacity:1;stroke-dasharray:none"
       d="m 673.95998,967.51052 6.46765,-4.81346"
       id="path5085" />
    <path
       style="fill:none;stroke:#000000;stroke-width:1;stroke-linecap:round;stroke-linejoin:round;stroke-miterlimit:4;stroke-opacity:1;stroke-dasharray:none"
       d="m 669.50862,959.64005 9.55009,-2.92207"
       id="path5089"
       inkscape:transform-center-x="20.752743"
       inkscape:transform-center-y="46.224966" />
    <path
       sodipodi:nodetypes="csccsscc"
       id="path5065"
       d="m 680.55524,960.80945 c 0,0 3.11356,1.19305 3.67384,2.3591 0.43686,0.90914 -0.40313,2.99895 -0.40313,2.99895 l 1.21102,1.61123 c 0,0 -5.03078,4.73886 -7.84427,3.93678 -2.21657,-0.6319 -3.0077,-3.67076 -3.61545,-5.89413 -0.26415,-0.96627 0.0467,-2.82804 0.0467,-2.82804 l 6.9313,-2.18392 z"
       style="fill:#ffebcf;fill-opacity:1;stroke:#000000;stroke-width:1;stroke-linecap:round;stroke-linejoin:round;stroke-miterlimit:4;stroke-opacity:1;stroke-dasharray:none"
       inkscape:transform-center-x="15.782501"
       inkscape:transform-center-y="54.354133" />
    <path
       sodipodi:nodetypes="cssss"
       id="path5067"
       d="m 683.80342,966.1137 c 0,0 -1.60198,1.67432 -2.5047,1.37211 -0.93667,-0.31358 -2.60161,-3.31623 -1.69656,-3.71186 0,0 0.61275,-1.3203 1.195,-1.12166 0.30033,0.10245 1.4321,2.2277 1.4321,2.2277"
       style="fill:none;stroke:#000000;stroke-width:1;stroke-linecap:round;stroke-linejoin:round;stroke-miterlimit:4;stroke-opacity:1;stroke-dasharray:none"
       inkscape:transform-center-x="13.464142"
       inkscape:transform-center-y="53.123066" />
    <path
       id="path5069"
       d="m 673.95998,967.51052 6.46765,-4.81346"
       style="fill:none;stroke:#000000;stroke-width:1;stroke-linecap:round;stroke-linejoin:round;stroke-miterlimit:4;stroke-opacity:1;stroke-dasharray:none"
       inkscape:transform-center-x="17.842603"
       inkscape:transform-center-y="53.149741" />
    <path
       sodipodi:nodetypes="cccsscccccc"
       id="path5033"
       d="m 678.41623,954.6926 22.07167,-0.42286 -10e-6,8.45686 c 0,0 13.98546,19.95329 16.43787,31.55772 0.58637,2.77462 -0.22138,8.35948 -2.54136,9.99048 l -35.66744,25.0753 -7.71696,-11.9759 28.92874,-22.42128 -19.45401,-21.6103 -1.16561,-5.9788 -0.89289,-12.67122 z"
       style="fill:#b3b3b3;stroke:#000000;stroke-width:1;stroke-linecap:round;stroke-linejoin:miter;stroke-miterlimit:4;stroke-opacity:1;stroke-dasharray:none" />
    <path
       sodipodi:nodetypes="ccsccsc"
       id="path5073"
       d="m 671.09691,1017.5241 -4.7795,2.7677 c 0,0 6.57348,9.6531 9.12805,14.8818 1.62483,3.3257 3.89846,10.3974 3.89846,10.3974 l 5.594,-1.7809 c 0,0 -3.05653,-8.5322 -5.13065,-12.5462 -2.48673,-4.8126 -8.71036,-13.7198 -8.71036,-13.7198 z"
       style="fill:#000000;stroke:#000000;stroke-width:1;stroke-linecap:round;stroke-linejoin:round;stroke-miterlimit:4;stroke-opacity:1;stroke-dasharray:none" />
    <path
       id="path5077"
       d="m 699.8,994.86218 2.4,0"
       style="fill:none;stroke:#000000;stroke-width:0.77459669px;stroke-linecap:round;stroke-linejoin:miter;stroke-opacity:1" />
    <path
       inkscape:transform-center-y="26.044198"
       inkscape:transform-center-x="4.7674625"
       sodipodi:nodetypes="ccccccccc"
       id="path5009"
       d="m 491.2157,920.50858 5.94959,-1.9595 6.10051,5.71461 -17.19448,27.43823 20.38279,21.47885 -6.99506,7.354 -22.36169,-24.51076 -1.18454,-5.58096 15.30288,-29.93447 z"
       style="fill:#ffffff;stroke:#000000;stroke-width:1;stroke-linecap:round;stroke-linejoin:round;stroke-miterlimit:4;stroke-opacity:1;stroke-dasharray:none" />
    <path
       inkscape:transform-center-y="49.854972"
       inkscape:transform-center-x="-3.712341"
       id="path5011"
       d="m 496.65153,977.54063 6.84309,-7.27426"
       style="fill:none;stroke:#000000;stroke-width:1;stroke-linecap:round;stroke-linejoin:round;stroke-miterlimit:4;stroke-opacity:1;stroke-dasharray:none" />
    <path
       sodipodi:nodetypes="csccsscc"
       id="path5021"
       d="m 506.82349,973.07676 c 0,0 3.29534,-0.50844 4.36021,0.22615 0.83028,0.57274 1.13748,2.80399 1.13748,2.80399 l 1.85074,0.79837 c 0,0 -2.01776,6.61016 -4.8586,7.30924 -2.2381,0.55075 -4.43237,-1.69551 -6.06292,-3.32465 -0.70864,-0.708 -1.36218,-2.47879 -1.36218,-2.47879 l 4.93529,-5.33435 z"
       style="fill:#ffebcf;fill-opacity:1;stroke:#000000;stroke-width:1;stroke-linecap:round;stroke-linejoin:round;stroke-miterlimit:4;stroke-opacity:1;stroke-dasharray:none" />
    <path
       sodipodi:nodetypes="cssss"
       id="path5023"
       d="m 512.27492,976.07136 c 0,0 -0.56053,2.24845 -1.49428,2.43378 -0.96887,0.19233 -3.90392,-1.58908 -3.31428,-2.38153 0,0 -0.12282,-1.45037 0.48127,-1.5667 0.3116,-0.06 2.3485,1.22398 2.3485,1.22398"
       style="fill:none;stroke:#000000;stroke-width:1;stroke-linecap:round;stroke-linejoin:round;stroke-miterlimit:4;stroke-opacity:1;stroke-dasharray:none" />
    <path
       id="path5025"
       d="m 504.42058,982.16673 3.2284,-7.38765"
       style="fill:none;stroke:#000000;stroke-width:1;stroke-linecap:round;stroke-linejoin:round;stroke-miterlimit:4;stroke-opacity:1;stroke-dasharray:none" />
    <path
       sodipodi:nodetypes="cccsscccccc"
       id="path5003"
       d="m 483.21981,961.58345 18.75687,11.64117 -4.59637,7.09872 c 0,0 0.89469,24.35016 -3.35383,35.42376 -1.01585,2.6477 -4.72929,6.8967 -7.56313,7.0048 l -43.56803,1.6628 0.0313,-14.2468 36.46905,-3.0976 -4.58441,-28.71313 2.2711,-5.65216 6.13741,-11.12156 z"
       style="fill:#b3b3b3;stroke:#000000;stroke-width:1;stroke-linecap:round;stroke-linejoin:miter;stroke-miterlimit:4;stroke-opacity:1;stroke-dasharray:none"
       inkscape:transform-center-x="17.277529"
       inkscape:transform-center-y="21.578705" />
    <path
       sodipodi:nodetypes="ccsccsc"
       id="path5005"
       d="m 442.92655,1010.3463 -5.5162,-0.2745 c 0,0 0.27126,11.6757 -0.42625,17.4531 -0.44366,3.6746 -2.37867,10.8465 -2.37867,10.8465 l 5.66355,1.5455 c 0,0 2.07166,-8.8233 2.51225,-13.3199 0.52833,-5.3913 0.14532,-16.2507 0.14532,-16.2507 z"
       style="fill:#000000;stroke:#000000;stroke-width:1;stroke-linecap:round;stroke-linejoin:round;stroke-miterlimit:4;stroke-opacity:1;stroke-dasharray:none"
       inkscape:transform-center-x="50.880465"
       inkscape:transform-center-y="53.57398" />
    <path
       id="path5007"
       d="m 479.33697,1006.9242 2.01457,1.3043"
       style="fill:none;stroke:#000000;stroke-width:0.77459669px;stroke-linecap:round;stroke-linejoin:miter;stroke-opacity:1"
       inkscape:transform-center-x="9.3692778"
       inkscape:transform-center-y="36.156005" />
    <path
       style="fill:#b3b3b3;stroke:#000000;stroke-width:1;stroke-linecap:round;stroke-linejoin:miter;stroke-miterlimit:4;stroke-opacity:1;stroke-dasharray:none"
       d="m 78.416234,954.6926 22.071666,-0.42286 -1e-5,8.45686 -3.993898,35.94268 -17.162884,47.90382 -15,-6.7289 14.445928,-42.22298 1.697691,-24.2786 -1.165609,-5.9788 -0.892884,-12.67122 z"
       id="path3961-1"
       sodipodi:nodetypes="cccccccccc" />
    <path
       style="fill:#b3b3b3;stroke:#000000;stroke-width:1;stroke-linecap:round;stroke-linejoin:miter;stroke-miterlimit:4;stroke-opacity:1;stroke-dasharray:none"
       d="m 78.416234,954.6926 22.071666,-0.42286 -1e-5,8.45686 c 0,0 13.98546,19.95329 16.43787,31.55772 0.58637,2.77462 -0.22138,8.35948 -2.54136,9.99048 L 78.716956,1029.3501 71,1017.3742 99.92874,994.95292 80.474727,973.34262 79.309118,967.36382 78.416234,954.6926 z"
       id="path3961"
       sodipodi:nodetypes="cccsscccccc" />
    <path
       style="fill:#ffffff;stroke:#000000;stroke-width:1;stroke-linecap:round;stroke-linejoin:round;stroke-miterlimit:4;stroke-opacity:1;stroke-dasharray:none"
       d="m 90.272555,910.65692 4.806652,-4.01662 7.778693,3.06023 -5.856312,31.84667 26.870082,12.44178 -3.78778,9.41622 -29.828103,-14.52953 -3.160325,-4.75 3.177093,-33.46875 z"
       id="path3834-4"
       sodipodi:nodetypes="ccccccccc"
       inkscape:transform-center-x="-9.7069632"
       inkscape:transform-center-y="23.334934" />
    <path
       style="fill:none;stroke:#000000;stroke-width:1;stroke-linecap:round;stroke-linejoin:round;stroke-miterlimit:4;stroke-opacity:1;stroke-dasharray:none"
       d="m 116.36966,961.65833 3.67596,-9.28602"
       id="path3836-5"
       inkscape:transform-center-x="-21.846906"
       inkscape:transform-center-y="44.966792" />
    <path
       style="fill:#ffebcf;fill-opacity:1;stroke:#000000;stroke-width:1;stroke-linecap:round;stroke-linejoin:miter;stroke-miterlimit:4;stroke-opacity:1;stroke-dasharray:none;display:inline"
       d="m 97.7954,895.74585 -2.048701,5.82526 10.132131,1.95291 1.5272,-5.44215 6.42775,-2.33602 3.95352,0 0,-31.57877 -19.9919,0 0,31.57877 z"
       id="path3815"
       sodipodi:nodetypes="ccccccccc" />
    <path
       style="fill:#712e1e;fill-opacity:1;stroke:#000000;stroke-width:1;stroke-linecap:round;stroke-linejoin:miter;stroke-miterlimit:4;stroke-opacity:1;stroke-dasharray:none;display:inline"
       d="m 110.22268,874.36467 c 0.63808,1.77499 -0.78888,6.19079 -3.45625,21.38118 l 11.00424,0 0,-5.03853 c -1.49942,1.14058 -5.5791,2.08899 -8.0104,0 -1.8608,-0.52201 1.88368,-11.25146 1.49176,-17.96073 1.76299,-4.60772 1.72988,-7.67673 6.33161,-3.31638 3.63635,-2.25977 3.36935,-4.91318 1.9196,-7.47988 -2.00607,-3.55163 -6.58799,-4.40973 -9.69684,-4.87953 -1.03911,-0.15702 1.47362,2.09813 0.46964,2.15407 -2.02987,0.1131 -3.97959,-2.14532 -6.71161,-1.94434 -1.05995,0.078 2.632,1.71149 1.56671,2.03084 -1.20667,0.36172 -6.08243,-0.39549 -8.087613,-0.31109 -1.002031,0.0422 2.494663,1.39795 1.657133,1.82967 -0.983216,0.50681 -6.911158,-0.26051 -8.387445,0.17647 -1.111811,0.3291 1.667211,0.55219 2.683356,1.23538 0.799189,0.53733 -5.999994,1.208 -6.225244,1.41786 -0.524636,0.48878 3.413666,0.59819 2.970542,1.03882 -0.671139,0.66737 -7.172304,1.99731 -7.832466,2.58593 -1.052305,0.93828 4.477957,1.56719 4.040256,2.30531 -0.39182,0.66074 -5.779534,0.39988 -6.746204,1.02179 -0.890261,0.57275 3.594302,1.46564 3.476723,2.23709 -0.173414,1.13777 -2.450116,0.45136 -3.26314,1.54744 1.267798,-0.005 2.390185,0.25888 3.980228,1.00216 1.098104,0.51334 -3.232874,1.53144 -2.062799,2.29825 1.223175,0.8016 2.272288,-0.23969 3.76722,0.71267 1.424338,0.9074 -2.180812,1.40209 -0.642994,2.471 1.278072,0.88836 1.990096,-0.10084 3.116726,1.35454 0.844242,1.09059 -1.831415,0.87118 -0.972853,1.44194 1.169684,0.77758 2.215968,-0.0287 3.705683,0.73014 0.972678,0.49549 -3.309051,1.55791 -2.281293,2.10098 1.039219,0.54913 2.49869,-0.15166 3.880412,0.35603 1.438969,0.52874 -1.801418,1.47615 -0.330674,2.06264 0.75075,0.29938 2.927981,0.13827 4.110727,0.81883 1.068479,0.61481 1.130304,2.07905 2.085879,2.28168 3.33412,0.707 5.86833,-0.41238 6.05554,-0.30674 0.45603,0 0.27743,-14.65313 1.41422,-18.35627 0.49685,-1.61851 4.97962,1.00078 4.97962,1.00078 z"
       id="path2914"
       sodipodi:nodetypes="cccccccssssssssssssssscsssssssssssscsc" />
    <rect
       style="fill:#ffffff;fill-opacity:1;stroke:#000000;stroke-width:1;stroke-linecap:round;stroke-linejoin:round;stroke-miterlimit:4;stroke-opacity:1;stroke-dasharray:none;display:inline"
       id="rect3688-4"
       width="5.8742762"
       height="2.6771686"
       x="112.35117"
       y="874.40747" />
    <path
       style="fill:#ffebcf;fill-opacity:1;stroke:#000000;stroke-width:1;stroke-linecap:round;stroke-linejoin:miter;stroke-miterlimit:4;stroke-opacity:1;stroke-dasharray:none;display:inline"
       d="m 109.33879,874.68829 c 0,-2.91256 -3.38045,-2.58894 -3.07313,0 0.30731,2.58893 -0.61463,5.50148 0.61462,5.50148 1.22926,0 1.99754,-0.16181 1.84388,-1.9417"
       id="path3823" />
    <path
       style="fill:none;stroke:#000000;stroke-width:1;stroke-linecap:round;stroke-linejoin:miter;stroke-miterlimit:4;stroke-opacity:1;stroke-dasharray:none;display:inline"
       d="m 109.08515,874.58807 2.89883,0"
       id="path3725" />
    <path
       style="fill:#ffffff;stroke:#000000;stroke-width:1;stroke-linecap:round;stroke-linejoin:round;stroke-miterlimit:4;stroke-opacity:1;stroke-dasharray:none;display:inline"
       d="m 74.245582,970.42682 c 5.630799,-21.04547 12.245088,-38.11563 14.825841,-59.80208 l 6.503528,-9.40385 10.710569,2.2863 0.78588,11.13172 c -2.47865,21.03873 -3.16131,32.08813 -5.12457,39.68011 -2.34068,9.05151 -5.905654,13.18849 -8.287062,23.4807 -6.049494,-7.6831 -12.439472,-9.40458 -19.414186,-7.3729 z"
       id="path3630"
       sodipodi:nodetypes="cccccscc" />
    <path
       style="fill:none;stroke:#000000;stroke-width:1;stroke-linecap:round;stroke-linejoin:round;stroke-miterlimit:4;stroke-opacity:1;stroke-dasharray:none"
       d="m 105.17173,907.53001 0.7071,-4.06587 -10.076269,-2.12132 -1.767767,1.94455 11.136936,4.24264 z"
       id="path3828" />
    <path
       style="fill:#d40000;stroke:#000000;stroke-width:1;stroke-linecap:round;stroke-linejoin:round;stroke-miterlimit:4;stroke-opacity:1;stroke-dasharray:none"
       d="m 106.05561,903.46414 c 0,0 2.2981,2.47488 1.23744,4.41942 -1.06066,1.94455 -2.2981,0 -2.2981,0 l 1.06066,-4.41942 z"
       id="path3830" />
    <path
       style="fill:#d40000;stroke:#000000;stroke-width:1;stroke-linecap:round;stroke-linejoin:round;stroke-miterlimit:4;stroke-opacity:1;stroke-dasharray:none"
       d="m 107.6466,907.88356 c 0.43129,14.98811 -5.79902,17.70476 -19.091883,29.69848 l -6.187185,-0.88388 3.358758,-6.18718 c 11.303024,-9.92695 18.63413,-7.86692 20.5061,-21.74353 l 1.41421,-0.88389 z"
       id="path3832"
       sodipodi:nodetypes="cccccc" />
    <path
       style="fill:#ffffff;stroke:#000000;stroke-width:1;stroke-linecap:round;stroke-linejoin:miter;stroke-miterlimit:4;stroke-opacity:1;stroke-dasharray:none"
       d="m 92.443804,906.1158 6.363966,1.06066 2.82842,8.13172 -28.814599,16.79379 8.308505,29.34493 -9.899496,3.35876 -8.662058,-33.05725 1.590991,-5.65685 28.284271,-19.97576 z"
       id="path3834"
       sodipodi:nodetypes="ccccccccc" />
    <path
       style="fill:none;stroke:#000000;stroke-width:1;stroke-linecap:round;stroke-linejoin:miter;stroke-miterlimit:4;stroke-opacity:1;stroke-dasharray:none"
       d="m 69.993164,960.03269 9.722718,-3.35876"
       id="path3836" />
    <path
       transform="matrix(1.3144597,0,0,0.99957523,-63.57716,911.37512)"
       sodipodi:type="arc"
       style="fill:#000000;stroke:#000000;stroke-width:0.87240595;stroke-linecap:round;stroke-linejoin:round;stroke-miterlimit:4;stroke-opacity:1;stroke-dasharray:none;display:inline"
       id="path3641-14"
       sodipodi:cx="103.76792"
       sodipodi:cy="50.800468"
       sodipodi:rx="0.35355338"
       sodipodi:ry="0.35355338"
       d="m 104.12147,50.800468 c 0,0.195263 -0.15829,0.353554 -0.35355,0.353554 -0.19526,0 -0.35355,-0.158291 -0.35355,-0.353554 0,-0.195262 0.15829,-0.353553 0.35355,-0.353553 0.19526,0 0.35355,0.158291 0.35355,0.353553 z" />
    <path
       style="fill:#ffebcf;fill-opacity:1;stroke:#000000;stroke-width:1;stroke-linecap:round;stroke-linejoin:miter;stroke-miterlimit:4;stroke-opacity:1;stroke-dasharray:none"
       d="m 80.953319,961.4469 c 0,0 3.132835,1.14146 3.71231,2.2981 0.451798,0.9018 -0.353553,3.0052 -0.353553,3.0052 l -2.12132,-2.47487 3.358757,4.06586 c 0,0 -4.951827,4.82143 -7.778175,4.06583 -2.226707,-0.5952 -3.067892,-3.62063 -3.71231,-5.8336 -0.280072,-0.96178 0,-2.82842 0,-2.82842 l 6.894291,-2.2981 z"
       id="path3862"
       sodipodi:nodetypes="cscccsscc" />
    <path
       style="fill:#ffebcf;fill-opacity:1;stroke:#000000;stroke-width:1;stroke-linecap:round;stroke-linejoin:round;stroke-miterlimit:4;stroke-opacity:1;stroke-dasharray:none"
       d="m 124.17661,953.756 c 0,0 2.87516,-1.68853 4.13595,-1.39872 0.98302,0.22594 2.09188,2.18638 2.09188,2.18638 l 2.01473,0.0591 c 0,0 0.5638,6.88823 -1.8186,8.58624 -1.87693,1.33776 -4.74522,0.0597 -6.86185,-0.85279 -0.91989,-0.39655 -2.18073,-1.80122 -2.18073,-1.80122 l 2.61862,-6.77903 z"
       id="path3862-7"
       sodipodi:nodetypes="csccsscc" />
    <path
       style="fill:none;stroke:#000000;stroke-width:1;stroke-linecap:round;stroke-linejoin:round;stroke-miterlimit:4;stroke-opacity:1;stroke-dasharray:none"
       d="m 130.34834,954.52769 c 0,0 0.3087,2.29661 -0.49076,2.81343 -0.82952,0.53626 -4.21478,-0.0364 -3.95918,-0.9905 0,0 -0.64934,-1.30269 -0.1308,-1.63372 0.26747,-0.17075 2.63441,0.27103 2.63441,0.27103"
       id="path3955"
       sodipodi:nodetypes="cssss" />
    <path
       style="fill:none;stroke:#000000;stroke-width:1;stroke-linecap:round;stroke-linejoin:round;stroke-miterlimit:4;stroke-opacity:1;stroke-dasharray:none"
       d="m 125.29748,963.09117 0.27452,-8.05758"
       id="path3959" />
    <path
       style="fill:#000000;stroke:#000000;stroke-width:1;stroke-linecap:round;stroke-linejoin:round;stroke-miterlimit:4;stroke-opacity:1;stroke-dasharray:none"
       d="m 64.465955,1039.8508 -2.46996,4.9399 15.807743,7.4099 12.843792,0 0,-5.6809 -11.361816,0 -14.819759,-6.6689 z"
       id="path4663"
       sodipodi:nodetypes="ccccccc" />
    <path
       style="fill:#000000;stroke:#000000;stroke-width:1;stroke-linecap:round;stroke-linejoin:round;stroke-miterlimit:4;stroke-opacity:1;stroke-dasharray:none"
       d="m 71.096912,1017.5241 -4.779504,2.7677 c 0,0 6.573482,9.6531 9.128056,14.8818 1.624826,3.3257 3.898454,10.3974 3.898454,10.3974 l 5.594,-1.7809 c 0,0 -3.05653,-8.5322 -5.130644,-12.5462 -2.486731,-4.8126 -8.710362,-13.7198 -8.710362,-13.7198 z"
       id="path4663-6"
       sodipodi:nodetypes="ccsccsc" />
    <path
       style="fill:none;stroke:#000000;stroke-width:1px;stroke-linecap:round;stroke-linejoin:round;stroke-opacity:1"
       d="m 72.75,79.75 -2.25,-1"
       id="path4713"
       transform="translate(0,852.36218)" />
    <path
       style="fill:none;stroke:#000000;stroke-width:0.77459669px;stroke-linecap:round;stroke-linejoin:miter;stroke-opacity:1"
       d="m 99.8,994.86218 2.4,0"
       id="path4719" />
    <path
       sodipodi:nodetypes="cccccccccc"
       id="path4879"
       d="m 285.26055,946.9128 19.33955,10.64514 -4.21916,7.3292 -21.39324,29.15744 -38.7737,32.95362 -9.6428,-13.3152 33.58484,-29.38576 13.58398,-20.19426 1.97265,-5.7631 5.54788,-11.42708 z"
       style="fill:#b3b3b3;stroke:#000000;stroke-width:1;stroke-linecap:round;stroke-linejoin:miter;stroke-miterlimit:4;stroke-opacity:1;stroke-dasharray:none"
       inkscape:transform-center-x="21.573855"
       inkscape:transform-center-y="26.28408" />
    <path
       sodipodi:nodetypes="cccssccccsc"
       id="path4881"
       d="m 277.66939,959.05343 15.33918,-12.40381 4.71384,7.02127 c 0,0 26.4833,12.52062 34.9877,20.78816 2.0334,1.97677 4.34864,6.44157 4.95874,9.2111 l 7.86426,35.69965 -13.33233,7.1085 -9.47968,-39.24002 c -15.27951,-4.92845 -36.02059,-7.42953 -45.69715,-14.84818 0,0 -1.5951,-3.97824 -1.55032,-6.06415 0.0543,-2.53167 2.19576,-7.27252 2.19576,-7.27252 z"
       style="fill:#b3b3b3;stroke:#000000;stroke-width:1;stroke-linecap:round;stroke-linejoin:miter;stroke-miterlimit:4;stroke-opacity:1;stroke-dasharray:none"
       inkscape:transform-center-x="-12.733476"
       inkscape:transform-center-y="22.32479" />
    <path
       inkscape:transform-center-y="14.565192"
       inkscape:transform-center-x="-21.315039"
       sodipodi:nodetypes="ccccccccc"
       id="path4883"
       d="m 290.44946,910.0633 1.97933,-5.94301 8.22636,-1.48325 11.74988,30.17362 29.3994,-3.53188 1.7246,10.00191 -33.01316,3.30971 -5.18467,-2.38104 -14.88174,-30.14606 z"
       style="fill:#ffffff;stroke:#000000;stroke-width:1;stroke-linecap:round;stroke-linejoin:round;stroke-miterlimit:4;stroke-opacity:1;stroke-dasharray:none" />
    <path
       inkscape:transform-center-y="26.781162"
       inkscape:transform-center-x="-42.214561"
       id="path4885"
       d="m 339.45096,939.74588 -1.75133,-9.83238"
       style="fill:none;stroke:#000000;stroke-width:1;stroke-linecap:round;stroke-linejoin:round;stroke-miterlimit:4;stroke-opacity:1;stroke-dasharray:none" />
    <path
       sodipodi:nodetypes="ccccccccc"
       id="path4887"
       d="m 297.7954,891.74585 -2.0487,5.82526 10.13213,1.95291 1.5272,-5.44215 6.42775,-2.33602 3.95352,0 0,-31.57877 -19.9919,0 0,31.57877 z"
       style="fill:#ffebcf;fill-opacity:1;stroke:#000000;stroke-width:1;stroke-linecap:round;stroke-linejoin:miter;stroke-miterlimit:4;stroke-opacity:1;stroke-dasharray:none;display:inline" />
    <path
       sodipodi:nodetypes="cccccccssssssssssssssscsssssssssssscsc"
       id="path4889"
       d="m 310.22268,870.36466 c 0.63808,1.77499 -0.78888,6.1908 -3.45625,21.38119 l 11.00424,0 0,-5.03853 c -1.49942,1.14058 -5.5791,2.08899 -8.0104,0 -1.8608,-0.52201 1.88368,-11.25146 1.49176,-17.96073 1.76299,-4.60772 1.72988,-7.67673 6.33161,-3.31638 3.63635,-2.25977 3.36935,-4.91318 1.9196,-7.47988 -2.00607,-3.55163 -6.58799,-4.40973 -9.69684,-4.87953 -1.03911,-0.15702 0.22362,1.34813 -0.78036,1.40407 -2.02987,0.1131 -2.72959,-1.39532 -5.46161,-1.19434 -1.05995,0.078 1.632,1.46149 0.56671,1.78084 -1.20667,0.36172 -5.08243,-0.14549 -7.08761,-0.0611 -1.00203,0.0422 1.74466,0.89795 0.90713,1.32967 -0.98322,0.50681 -6.16116,0.23949 -7.63745,0.67647 -1.11181,0.3291 0.66722,0.30219 1.68336,0.98538 0.79919,0.53733 -4.99999,1.458 -5.22524,1.66786 -0.52464,0.48878 4.16366,0.0982 3.72054,0.53882 -0.67114,0.66737 -7.9223,2.49731 -8.58247,3.08593 -1.0523,0.93828 4.47796,-0.43281 4.04026,0.30531 -0.39182,0.66074 -5.77953,2.39988 -6.74621,3.02179 -0.89026,0.57275 4.34431,-0.0344 4.22673,0.73709 -0.17342,1.13777 -3.20012,1.95136 -4.01314,3.04744 1.2678,-0.005 3.14018,-1.24112 4.73023,-0.49784 1.0981,0.51334 -3.98288,3.03144 -2.8128,3.79825 1.22317,0.8016 2.27229,-0.48969 3.76722,0.46267 1.42434,0.9074 -2.18081,1.65209 -0.643,2.721 1.27808,0.88836 2.2401,-1.10084 3.36673,0.35454 0.84424,1.09059 -2.08142,1.87118 -1.22285,2.44194 1.16968,0.77758 2.46596,-0.2787 3.95568,0.48014 0.97268,0.49549 -3.55905,1.80791 -2.53129,2.35098 1.03921,0.54913 3.24869,-0.90166 4.63041,-0.39397 1.43897,0.52874 -2.55142,2.22615 -1.08068,2.81264 0.75075,0.29938 2.92798,0.13827 4.11073,0.81883 1.06848,0.61481 1.1303,2.07905 2.08588,2.28168 3.33412,0.707 5.86833,-0.41238 6.05554,-0.30674 0.45603,0 0.27743,-14.65313 1.41422,-18.35627 0.49685,-1.61851 4.97962,1.00078 4.97962,1.00078 z"
       style="fill:#712e1e;fill-opacity:1;stroke:#000000;stroke-width:1;stroke-linecap:round;stroke-linejoin:miter;stroke-miterlimit:4;stroke-opacity:1;stroke-dasharray:none;display:inline" />
    <rect
       y="870.40747"
       x="312.35117"
       height="2.6771686"
       width="5.8742762"
       id="rect4891"
       style="fill:#ffffff;fill-opacity:1;stroke:#000000;stroke-width:1;stroke-linecap:round;stroke-linejoin:round;stroke-miterlimit:4;stroke-opacity:1;stroke-dasharray:none;display:inline" />
    <path
       id="path4893"
       d="m 309.33879,870.68829 c 0,-2.91256 -3.38045,-2.58894 -3.07313,0 0.30731,2.58893 -0.61463,5.50148 0.61462,5.50148 1.22926,0 1.99754,-0.16181 1.84388,-1.9417"
       style="fill:#ffebcf;fill-opacity:1;stroke:#000000;stroke-width:1;stroke-linecap:round;stroke-linejoin:miter;stroke-miterlimit:4;stroke-opacity:1;stroke-dasharray:none;display:inline" />
    <path
       id="path4895"
       d="m 309.08515,870.58807 2.89883,0"
       style="fill:none;stroke:#000000;stroke-width:1;stroke-linecap:round;stroke-linejoin:miter;stroke-miterlimit:4;stroke-opacity:1;stroke-dasharray:none;display:inline" />
    <path
       sodipodi:nodetypes="cccccscc"
       id="path4897"
       d="m 274.24558,966.42682 c 5.6308,-21.04547 12.24509,-38.11563 14.82584,-59.80208 l 6.50353,-9.40385 10.71057,2.2863 0.78588,11.13172 c -2.47865,21.03873 -3.16131,32.08813 -5.12457,39.68011 -2.34068,9.05151 -5.90565,13.18849 -8.28706,23.4807 -6.0495,-7.6831 -12.43947,-9.40458 -19.41419,-7.3729 z"
       style="fill:#ffffff;stroke:#000000;stroke-width:1;stroke-linecap:round;stroke-linejoin:round;stroke-miterlimit:4;stroke-opacity:1;stroke-dasharray:none;display:inline" />
    <path
       id="path4899"
       d="m 305.17173,903.53001 0.7071,-4.06587 -10.07627,-2.12132 -1.76777,1.94455 11.13694,4.24264 z"
       style="fill:none;stroke:#000000;stroke-width:1;stroke-linecap:round;stroke-linejoin:round;stroke-miterlimit:4;stroke-opacity:1;stroke-dasharray:none" />
    <path
       id="path4901"
       d="m 306.05561,899.46414 c 0,0 2.2981,2.47488 1.23744,4.41942 -1.06066,1.94455 -2.2981,0 -2.2981,0 l 1.06066,-4.41942 z"
       style="fill:#d40000;stroke:#000000;stroke-width:1;stroke-linecap:round;stroke-linejoin:round;stroke-miterlimit:4;stroke-opacity:1;stroke-dasharray:none" />
    <path
       sodipodi:nodetypes="cccccc"
       id="path4903"
       d="m 307.6466,903.88356 c 0.43129,14.98811 -5.79902,15.70476 -19.09188,27.69848 l -6.68719,-2.38388 3.85876,-4.68718 c 11.30302,-9.92695 18.63413,-5.86692 20.5061,-19.74353 l 1.41421,-0.88389 z"
       style="fill:#d40000;stroke:#000000;stroke-width:1;stroke-linecap:round;stroke-linejoin:round;stroke-miterlimit:4;stroke-opacity:1;stroke-dasharray:none" />
    <path
       sodipodi:nodetypes="ccccccccc"
       id="path4905"
       d="m 294.6425,901.25061 5.54851,3.29227 -0.30677,8.60411 -32.93949,5.22515 -2.87672,30.36249 -10.44399,-0.45226 3.89088,-33.95106 3.53069,-4.69738 33.59689,-8.38332 z"
       style="fill:#ffffff;stroke:#000000;stroke-width:1;stroke-linecap:round;stroke-linejoin:miter;stroke-miterlimit:4;stroke-opacity:1;stroke-dasharray:none"
       inkscape:transform-center-x="18.94484"
       inkscape:transform-center-y="17.441028" />
    <path
       id="path4907"
       d="m 254.19816,943.38513 10.27919,0.38828"
       style="fill:none;stroke:#000000;stroke-width:1;stroke-linecap:round;stroke-linejoin:miter;stroke-miterlimit:4;stroke-opacity:1;stroke-dasharray:none"
       inkscape:transform-center-x="36.51461"
       inkscape:transform-center-y="36.027678" />
    <path
       d="m 104.12147,50.800468 a 0.35355338,0.35355338 0 1 1 -0.7071,0 0.35355338,0.35355338 0 1 1 0.7071,0 z"
       sodipodi:ry="0.35355338"
       sodipodi:rx="0.35355338"
       sodipodi:cy="50.800468"
       sodipodi:cx="103.76792"
       id="path4909"
       style="fill:#000000;stroke:#000000;stroke-width:0.87240595;stroke-linecap:round;stroke-linejoin:round;stroke-miterlimit:4;stroke-opacity:1;stroke-dasharray:none;display:inline"
       sodipodi:type="arc"
       transform="matrix(1.2253283,0.47578864,-0.36181142,0.93179565,147.29737,849.67915)"
       inkscape:transform-center-x="39.785414"
       inkscape:transform-center-y="38.834812" />
    <path
       sodipodi:nodetypes="cscccsscc"
       id="path4911"
       d="m 263.90324,948.67064 c 0,0 2.50723,2.19804 2.62875,3.486 0.0947,1.00419 -1.41736,2.67345 -1.41736,2.67345 l -1.08166,-3.0749 1.6593,5.00591 c 0,0 -6.36123,2.70211 -8.72243,0.97471 -1.86028,-1.36083 -1.54932,-4.48559 -1.34902,-6.78176 0.0871,-0.99794 1.02378,-2.63663 1.02378,-2.63663 l 7.25864,0.35322 z"
       style="fill:#ffebcf;fill-opacity:1;stroke:#000000;stroke-width:1;stroke-linecap:round;stroke-linejoin:miter;stroke-miterlimit:4;stroke-opacity:1;stroke-dasharray:none"
       inkscape:transform-center-x="34.8504"
       inkscape:transform-center-y="45.763491" />
    <path
       sodipodi:nodetypes="csccsscc"
       id="path4913"
       d="m 341.94148,928.92032 c 0,0 1.55914,-2.94732 2.78415,-3.36318 0.95511,-0.32425 2.92862,0.76117 2.92862,0.76117 l 1.7453,-1.00825 c 0,0 4.09888,5.5646 2.96399,8.26109 -0.8941,2.1244 -4.0061,2.54398 -6.28645,2.87972 -0.99104,0.14592 -2.80185,-0.38677 -2.80185,-0.38677 l -1.33376,-7.14378 z"
       style="fill:#ffebcf;fill-opacity:1;stroke:#000000;stroke-width:1;stroke-linecap:round;stroke-linejoin:round;stroke-miterlimit:4;stroke-opacity:1;stroke-dasharray:none" />
    <path
       sodipodi:nodetypes="cssss"
       id="path4915"
       d="m 347.59813,926.3342 c 0,0 1.46933,1.79186 1.06066,2.65165 -0.42404,0.89212 -3.60525,2.18355 -3.88908,1.23744 0,0 -1.23694,-0.76721 -0.96967,-1.32132 0.13786,-0.28581 2.38388,-1.15355 2.38388,-1.15355"
       style="fill:none;stroke:#000000;stroke-width:1;stroke-linecap:round;stroke-linejoin:round;stroke-miterlimit:4;stroke-opacity:1;stroke-dasharray:none" />
    <path
       id="path4917"
       d="m 347.8,936.2742 -4,-7"
       style="fill:none;stroke:#000000;stroke-width:1;stroke-linecap:round;stroke-linejoin:round;stroke-miterlimit:4;stroke-opacity:1;stroke-dasharray:none" />
    <path
       sodipodi:nodetypes="ccsccsc"
       id="path4921"
       d="m 335.34885,1031.8659 -2.90509,-4.6973 c 0,0 10.35392,-5.4027 15.07556,-8.8043 3.00316,-2.1637 8.34781,-7.3224 8.34781,-7.3224 l 4.08914,4.2122 c 0,0 -6.72464,6.0762 -10.44897,8.6342 -4.46525,3.0671 -14.15845,7.9776 -14.15845,7.9776 z"
       style="fill:#000000;stroke:#000000;stroke-width:1;stroke-linecap:round;stroke-linejoin:round;stroke-miterlimit:4;stroke-opacity:1;stroke-dasharray:none" />
    <path
       id="path4923"
       d="m 266.87432,918.35575 -1.73547,-1.74662"
       style="fill:none;stroke:#000000;stroke-width:1px;stroke-linecap:round;stroke-linejoin:round;stroke-opacity:1"
       inkscape:transform-center-x="29.84578"
       inkscape:transform-center-y="9.9308481" />
    <path
       id="path4925"
       d="m 312.25,932.61218 -1,2.25"
       style="fill:none;stroke:#000000;stroke-width:1px;stroke-linecap:round;stroke-linejoin:round;stroke-opacity:1" />
    <path
       style="fill:#000000;stroke:#000000;stroke-width:1;stroke-linecap:round;stroke-linejoin:round;stroke-miterlimit:4;stroke-opacity:1;stroke-dasharray:none"
       d="m 230.71925,1013.8387 -4.77951,2.7677 c 0,0 6.57349,9.6531 9.12806,14.8818 1.62483,3.3257 3.89845,10.3974 3.89845,10.3974 l 5.594,-1.7809 c 0,0 -3.05653,-8.5322 -5.13064,-12.5462 -2.48673,-4.8126 -8.71036,-13.7198 -8.71036,-13.7198 z"
       id="path4663-6-9"
       sodipodi:nodetypes="ccsccsc" />
    <path
       inkscape:transform-center-y="28.588015"
       inkscape:transform-center-x="-20.39939"
       style="fill:#b3b3b3;stroke:#000000;stroke-width:1;stroke-linecap:round;stroke-linejoin:miter;stroke-miterlimit:4;stroke-opacity:1;stroke-dasharray:none"
       d="m 477.50027,975.71356 15.37651,-15.83983 5.95404,6.00565 22.46913,28.33664 21.5384,46.10248 -15.38974,5.7822 -19.46825,-40.1554 -15.88771,-18.43669 -5.03713,-3.4252 -9.55525,-8.36985 z"
       id="path4953"
       sodipodi:nodetypes="cccccccccc" />
    <path
       style="fill:#ffebcf;fill-opacity:1;stroke:#000000;stroke-width:1;stroke-linecap:round;stroke-linejoin:miter;stroke-miterlimit:4;stroke-opacity:1;stroke-dasharray:none;display:inline"
       d="m 497.7954,907.74585 -2.0487,5.82526 10.13213,1.95291 1.5272,-5.44215 6.42775,-2.33602 3.95352,0 0,-31.57877 -19.9919,0 0,31.57877 z"
       id="path4961"
       sodipodi:nodetypes="ccccccccc" />
    <path
       style="fill:#712e1e;fill-opacity:1;stroke:#000000;stroke-width:1;stroke-linecap:round;stroke-linejoin:miter;stroke-miterlimit:4;stroke-opacity:1;stroke-dasharray:none;display:inline"
       d="m 510.22268,886.36467 c 0.63808,1.77499 -0.78888,6.19079 -3.45625,21.38118 l 11.00424,0 0,-5.03853 c -1.49942,1.14058 -5.5791,2.08899 -8.0104,0 -1.8608,-0.52201 1.88368,-11.25146 1.49176,-17.96073 1.76299,-4.60772 1.72988,-7.67673 6.33161,-3.31638 3.63635,-2.25977 3.36935,-4.91318 1.9196,-7.47988 -2.00607,-3.55163 -6.58799,-4.40973 -9.69684,-4.87953 -1.03911,-0.15702 1.47362,3.09813 0.46964,3.15407 -2.02987,0.1131 -3.97959,-3.14532 -6.71161,-2.94434 -1.05995,0.078 2.632,3.21149 1.56671,3.53084 -1.20667,0.36172 -6.08243,-1.89549 -8.08761,-1.81109 -1.00203,0.0422 2.49466,2.64795 1.65713,3.07967 -0.98322,0.50681 -6.91116,-1.51051 -8.38745,-1.07353 -1.11181,0.3291 1.91722,1.80219 2.93336,2.48538 0.79919,0.53733 -6.24999,-0.042 -6.47524,0.16786 -0.52464,0.48878 3.91366,2.09819 3.47054,2.53882 -0.67114,0.66737 -7.6723,0.49731 -8.33247,1.08593 -1.0523,0.93828 4.47796,2.81719 4.04026,3.55531 -0.39182,0.66074 -5.77953,-0.85012 -6.74621,-0.22821 -0.89026,0.57275 4.09431,1.96564 3.97673,2.73709 -0.17342,1.13777 -2.95012,-0.0486 -3.76314,1.04744 1.2678,-0.005 2.89018,1.00888 4.48023,1.75216 1.0981,0.51334 -3.73288,0.78144 -2.5628,1.54825 1.22317,0.8016 3.77229,0.76031 5.26722,1.71267 1.42434,0.9074 -3.68081,0.40209 -2.143,1.471 1.27808,0.88836 2.9901,0.14916 4.11673,1.60454 0.84424,1.09059 -2.83142,0.62118 -1.97285,1.19194 1.16968,0.77758 2.71596,0.4713 4.20568,1.23014 0.97268,0.49549 -3.80905,1.05791 -2.78129,1.60098 1.03921,0.54913 3.74869,0.59834 5.13041,1.10603 1.43897,0.52874 -3.05142,0.72615 -1.58068,1.31264 0.75075,0.29938 2.92798,0.13827 4.11073,0.81883 1.06848,0.61481 1.1303,2.07905 2.08588,2.28168 3.33412,0.707 5.86833,-0.41238 6.05554,-0.30674 0.45603,0 0.27743,-14.65313 1.41422,-18.35627 0.49685,-1.61851 4.97962,1.00078 4.97962,1.00078 z"
       id="path4963"
       sodipodi:nodetypes="cccccccssssssssssssssscsssssssssssscsc" />
    <rect
       style="fill:#ffffff;fill-opacity:1;stroke:#000000;stroke-width:1;stroke-linecap:round;stroke-linejoin:round;stroke-miterlimit:4;stroke-opacity:1;stroke-dasharray:none;display:inline"
       id="rect4965"
       width="5.8742762"
       height="2.6771686"
       x="512.3512"
       y="886.40747" />
    <path
       style="fill:#ffebcf;fill-opacity:1;stroke:#000000;stroke-width:1;stroke-linecap:round;stroke-linejoin:miter;stroke-miterlimit:4;stroke-opacity:1;stroke-dasharray:none;display:inline"
       d="m 509.33879,886.68829 c 0,-2.91256 -3.38045,-2.58894 -3.07313,0 0.30731,2.58893 -0.61463,5.50148 0.61462,5.50148 1.22926,0 1.99754,-0.16181 1.84388,-1.9417"
       id="path4967" />
    <path
       style="fill:none;stroke:#000000;stroke-width:1;stroke-linecap:round;stroke-linejoin:miter;stroke-miterlimit:4;stroke-opacity:1;stroke-dasharray:none;display:inline"
       d="m 509.08515,886.58807 2.89883,0"
       id="path4969" />
    <path
       style="fill:#ffffff;stroke:#000000;stroke-width:1;stroke-linecap:round;stroke-linejoin:round;stroke-miterlimit:4;stroke-opacity:1;stroke-dasharray:none;display:inline"
       d="m 474.24558,982.42682 c 5.6308,-21.04547 12.24509,-38.11563 14.82584,-59.80208 l 6.50353,-9.40385 10.71057,2.2863 0.78588,11.13172 c -2.47865,21.03873 -3.16131,32.08813 -5.12457,39.68011 -2.34068,9.05151 -5.90565,13.18849 -8.28706,23.4807 -6.0495,-7.6831 -12.43947,-9.40458 -19.41419,-7.3729 z"
       id="path4971"
       sodipodi:nodetypes="cccccscc" />
    <path
       style="fill:none;stroke:#000000;stroke-width:1;stroke-linecap:round;stroke-linejoin:round;stroke-miterlimit:4;stroke-opacity:1;stroke-dasharray:none"
       d="m 505.17173,919.53001 0.7071,-4.06587 -10.07627,-2.12132 -1.76777,1.94455 11.13694,4.24264 z"
       id="path4973" />
    <path
       style="fill:#d40000;stroke:#000000;stroke-width:1;stroke-linecap:round;stroke-linejoin:round;stroke-miterlimit:4;stroke-opacity:1;stroke-dasharray:none"
       d="m 506.05561,915.46414 c 0,0 2.2981,2.47488 1.23744,4.41942 -1.06066,1.94455 -2.2981,0 -2.2981,0 l 1.06066,-4.41942 z"
       id="path4975" />
    <path
       sodipodi:nodetypes="ccsccsc"
       id="path5001"
       d="m 530.10366,1051.5644 -2.37499,-4.9864 c 0,0 10.88183,-4.2401 15.94662,-7.106 3.22142,-1.8228 9.09729,-6.3674 9.09729,-6.3674 l 3.60487,4.6336 c 0,0 -7.34781,5.3057 -11.32905,7.442 -4.77342,2.5611 -14.94474,6.3842 -14.94474,6.3842 z"
       style="fill:#000000;stroke:#000000;stroke-width:1;stroke-linecap:round;stroke-linejoin:round;stroke-miterlimit:4;stroke-opacity:1;stroke-dasharray:none"
       inkscape:transform-center-x="-5.28314"
       inkscape:transform-center-y="-4.3766" />
    <path
       sodipodi:nodetypes="ccccccccc"
       id="path5013"
       d="m 491.40195,918.67674 6.45138,-0.0698 4.2083,7.51099 -25.42964,21.57883 13.31742,27.43725 -9.15862,5.03992 -14.3154,-31.03034 0.5761,-5.84801 24.35046,-24.61882 z"
       style="fill:#ffffff;stroke:#000000;stroke-width:1;stroke-linecap:round;stroke-linejoin:miter;stroke-miterlimit:4;stroke-opacity:1;stroke-dasharray:none"
       inkscape:transform-center-x="10.833855"
       inkscape:transform-center-y="25.088843" />
    <path
       id="path5015"
       d="m 478.73688,975.69129 8.98459,-5.00898"
       style="fill:none;stroke:#000000;stroke-width:1;stroke-linecap:round;stroke-linejoin:miter;stroke-miterlimit:4;stroke-opacity:1;stroke-dasharray:none"
       inkscape:transform-center-x="11.87319"
       inkscape:transform-center-y="48.885208" />
    <path
       d="m 104.12147,50.800468 a 0.35355338,0.35355338 0 1 1 -0.7071,0 0.35355338,0.35355338 0 1 1 0.7071,0 z"
       sodipodi:ry="0.35355338"
       sodipodi:rx="0.35355338"
       sodipodi:cy="50.800468"
       sodipodi:cx="103.76792"
       id="path5017"
       style="fill:#000000;stroke:#000000;stroke-width:0.87240595;stroke-linecap:round;stroke-linejoin:round;stroke-miterlimit:4;stroke-opacity:1;stroke-dasharray:none;display:inline"
       sodipodi:type="arc"
       transform="matrix(1.2941607,-0.23011368,0.17498897,0.98413897,338.71111,951.1684)"
       inkscape:transform-center-x="13.209367"
       inkscape:transform-center-y="52.98311" />
    <path
       sodipodi:nodetypes="cscccsscc"
       id="path5019"
       d="m 489.77535,975.16494 c 0,0 3.2843,0.57538 4.0573,1.61272 0.60271,0.80877 0.17802,3.02069 0.17802,3.02069 l -2.52182,-2.06529 4.01866,3.41507 c 0,0 -4.03129,5.61386 -6.94628,5.36473 -2.29651,-0.19621 -3.65435,-3.02765 -4.67623,-5.09363 -0.44411,-0.8979 -0.49515,-2.78475 -0.49515,-2.78475 l 6.3855,-3.46954 z"
       style="fill:#ffebcf;fill-opacity:1;stroke:#000000;stroke-width:1;stroke-linecap:round;stroke-linejoin:miter;stroke-miterlimit:4;stroke-opacity:1;stroke-dasharray:none"
       inkscape:transform-center-x="5.6536849"
       inkscape:transform-center-y="56.541334" />
    <path
       id="path5027"
       d="m 476.56329,947.71932 -2.39031,-0.59065"
       style="fill:none;stroke:#000000;stroke-width:1px;stroke-linecap:round;stroke-linejoin:round;stroke-opacity:1"
       inkscape:transform-center-x="19.73423"
       inkscape:transform-center-y="23.122403" />
    <path
       sodipodi:nodetypes="cccccc"
       id="path5029"
       d="m 507.6466,919.88356 c 0.43129,14.98811 -2.68857,19.67685 -19.59188,30.94848 -1.89573,0.73521 -3.79146,-0.98918 -5.68719,-2.13388 1.83199,-1.66452 3.10924,-3.60642 3.60876,-5.93718 12.01361,-5.66339 18.38413,-8.11691 20.2561,-21.99353 l 1.41421,-0.88389 z"
       style="fill:#d40000;stroke:#000000;stroke-width:1;stroke-linecap:round;stroke-linejoin:round;stroke-miterlimit:4;stroke-opacity:1;stroke-dasharray:none" />
    <path
       sodipodi:nodetypes="cccccccccc"
       id="path5031"
       d="m 678.41623,954.6926 22.07167,-0.42286 -10e-6,8.45686 -3.9939,35.94268 -17.16288,47.90382 -15,-6.7289 14.44593,-42.22298 1.69769,-24.2786 -1.16561,-5.9788 -0.89289,-12.67122 z"
       style="fill:#b3b3b3;stroke:#000000;stroke-width:1;stroke-linecap:round;stroke-linejoin:miter;stroke-miterlimit:4;stroke-opacity:1;stroke-dasharray:none" />
    <path
       inkscape:transform-center-y="23.573221"
       inkscape:transform-center-x="12.596398"
       sodipodi:nodetypes="ccccccccc"
       id="path5035"
       d="m 693.07733,907.42206 6.13805,1.24962 2.46263,7.98802 -28.53997,15.2963 7.04486,28.76054 -9.72162,2.91594 -7.25927,-32.37477 1.73967,-5.43357 28.13565,-18.40208 z"
       style="fill:#ffffff;stroke:#000000;stroke-width:1;stroke-linecap:round;stroke-linejoin:round;stroke-miterlimit:4;stroke-opacity:1;stroke-dasharray:none" />
    <path
       inkscape:transform-center-y="46.224966"
       inkscape:transform-center-x="20.752743"
       id="path5037"
       d="m 669.50862,959.64005 9.55009,-2.92207"
       style="fill:none;stroke:#000000;stroke-width:1;stroke-linecap:round;stroke-linejoin:round;stroke-miterlimit:4;stroke-opacity:1;stroke-dasharray:none" />
    <path
       sodipodi:nodetypes="ccccccccc"
       id="path5039"
       d="m 697.7954,895.74585 -2.0487,5.82526 10.13213,1.95291 1.5272,-5.44215 6.42775,-2.33602 3.95352,0 0,-31.57877 -19.9919,0 0,31.57877 z"
       style="fill:#ffebcf;fill-opacity:1;stroke:#000000;stroke-width:1;stroke-linecap:round;stroke-linejoin:miter;stroke-miterlimit:4;stroke-opacity:1;stroke-dasharray:none;display:inline" />
    <path
       sodipodi:nodetypes="cccccccssssssssssssssscsssssssssssscsc"
       id="path5041"
       d="m 710.22268,874.36467 c 0.63808,1.77499 -0.78888,6.19079 -3.45625,21.38118 l 11.00424,0 0,-5.03853 c -1.49942,1.14058 -5.5791,2.08899 -8.0104,0 -1.8608,-0.52201 1.88368,-11.25146 1.49176,-17.96073 1.76299,-4.60772 1.72988,-7.67673 6.33161,-3.31638 3.63635,-2.25977 3.36935,-4.91318 1.9196,-7.47988 -2.00607,-3.55163 -6.58799,-4.40973 -9.69684,-4.87953 -1.03911,-0.15702 1.47362,2.09813 0.46964,2.15407 -2.02987,0.1131 -3.97959,-2.14532 -6.71161,-1.94434 -1.05995,0.078 2.632,1.71149 1.56671,2.03084 -1.20667,0.36172 -6.08243,-0.39549 -8.08761,-0.31109 -1.00203,0.0422 2.49466,1.39795 1.65713,1.82967 -0.98322,0.50681 -6.91116,-0.26051 -8.38745,0.17647 -1.11181,0.3291 1.66722,0.55219 2.68336,1.23538 0.79919,0.53733 -5.99999,1.208 -6.22524,1.41786 -0.52464,0.48878 3.41366,0.59819 2.97054,1.03882 -0.67114,0.66737 -7.1723,1.99731 -7.83247,2.58593 -1.0523,0.93828 4.47796,1.56719 4.04026,2.30531 -0.39182,0.66074 -5.77953,0.39988 -6.74621,1.02179 -0.89026,0.57275 3.59431,1.46564 3.47673,2.23709 -0.17342,1.13777 -2.45012,0.45136 -3.26314,1.54744 1.2678,-0.005 2.39018,0.25888 3.98023,1.00216 1.0981,0.51334 -3.23288,1.53144 -2.0628,2.29825 1.22317,0.8016 2.27229,-0.23969 3.76722,0.71267 1.42434,0.9074 -2.18081,1.40209 -0.643,2.471 1.27808,0.88836 1.9901,-0.10084 3.11673,1.35454 0.84424,1.09059 -1.83142,0.87118 -0.97285,1.44194 1.16968,0.77758 2.21596,-0.0287 3.70568,0.73014 0.97268,0.49549 -3.30905,1.55791 -2.28129,2.10098 1.03921,0.54913 2.49869,-0.15166 3.88041,0.35603 1.43897,0.52874 -1.80142,1.47615 -0.33068,2.06264 0.75075,0.29938 2.92798,0.13827 4.11073,0.81883 1.06848,0.61481 1.1303,2.07905 2.08588,2.28168 3.33412,0.707 5.86833,-0.41238 6.05554,-0.30674 0.45603,0 0.27743,-14.65313 1.41422,-18.35627 0.49685,-1.61851 4.97962,1.00078 4.97962,1.00078 z"
       style="fill:#712e1e;fill-opacity:1;stroke:#000000;stroke-width:1;stroke-linecap:round;stroke-linejoin:miter;stroke-miterlimit:4;stroke-opacity:1;stroke-dasharray:none;display:inline" />
    <rect
       y="874.40747"
       x="712.3512"
       height="2.6771686"
       width="5.8742762"
       id="rect5043"
       style="fill:#ffffff;fill-opacity:1;stroke:#000000;stroke-width:1;stroke-linecap:round;stroke-linejoin:round;stroke-miterlimit:4;stroke-opacity:1;stroke-dasharray:none;display:inline" />
    <path
       id="path5045"
       d="m 709.33879,874.68829 c 0,-2.91256 -3.38045,-2.58894 -3.07313,0 0.30731,2.58893 -0.61463,5.50148 0.61462,5.50148 1.22926,0 1.99754,-0.16181 1.84388,-1.9417"
       style="fill:#ffebcf;fill-opacity:1;stroke:#000000;stroke-width:1;stroke-linecap:round;stroke-linejoin:miter;stroke-miterlimit:4;stroke-opacity:1;stroke-dasharray:none;display:inline" />
    <path
       id="path5047"
       d="m 709.08515,874.58807 2.89883,0"
       style="fill:none;stroke:#000000;stroke-width:1;stroke-linecap:round;stroke-linejoin:miter;stroke-miterlimit:4;stroke-opacity:1;stroke-dasharray:none;display:inline" />
    <path
       sodipodi:nodetypes="cccccscc"
       id="path5049"
       d="m 674.24558,970.42682 c 5.6308,-21.04547 12.24509,-38.11563 14.82584,-59.80208 l 6.50353,-9.40385 10.71057,2.2863 0.78588,11.13172 c -2.47865,21.03873 -3.16131,32.08813 -5.12457,39.68011 -2.34068,9.05151 -5.90565,13.18849 -8.28706,23.4807 -6.0495,-7.6831 -12.43947,-9.40458 -19.41419,-7.3729 z"
       style="fill:#ffffff;stroke:#000000;stroke-width:1;stroke-linecap:round;stroke-linejoin:round;stroke-miterlimit:4;stroke-opacity:1;stroke-dasharray:none;display:inline" />
    <path
       id="path5051"
       d="m 705.17173,907.53001 0.7071,-4.06587 -10.07627,-2.12132 -1.76777,1.94455 11.13694,4.24264 z"
       style="fill:none;stroke:#000000;stroke-width:1;stroke-linecap:round;stroke-linejoin:round;stroke-miterlimit:4;stroke-opacity:1;stroke-dasharray:none" />
    <path
       id="path5053"
       d="m 706.05561,903.46414 c 0,0 2.2981,2.47488 1.23744,4.41942 -1.06066,1.94455 -2.2981,0 -2.2981,0 l 1.06066,-4.41942 z"
       style="fill:#d40000;stroke:#000000;stroke-width:1;stroke-linecap:round;stroke-linejoin:round;stroke-miterlimit:4;stroke-opacity:1;stroke-dasharray:none" />
    <path
       sodipodi:nodetypes="cccccc"
       id="path5055"
       d="m 707.6466,907.88356 c 0.43129,14.98811 -5.79902,17.70476 -19.09188,29.69848 l -6.18719,-0.88388 3.35876,-6.18718 c 11.30302,-9.92695 18.63413,-7.86692 20.5061,-21.74353 l 1.41421,-0.88389 z"
       style="fill:#d40000;stroke:#000000;stroke-width:1;stroke-linecap:round;stroke-linejoin:round;stroke-miterlimit:4;stroke-opacity:1;stroke-dasharray:none" />
    <path
       sodipodi:nodetypes="ccccccccc"
       id="path5057"
       d="m 687.90262,910.6836 4.75127,-4.3647 8.15088,2.77272 -4.48671,33.04818 28.2462,11.50255 -3.44213,9.87082 -31.39041,-13.50761 -3.48096,-4.73436 1.65186,-34.5876 z"
       style="fill:#ffffff;stroke:#000000;stroke-width:1;stroke-linecap:round;stroke-linejoin:miter;stroke-miterlimit:4;stroke-opacity:1;stroke-dasharray:none"
       inkscape:transform-center-x="-10.555145"
       inkscape:transform-center-y="21.864443" />
    <path
       id="path5059"
       d="m 716.59796,961.55244 3.33338,-9.73145"
       style="fill:none;stroke:#000000;stroke-width:1;stroke-linecap:round;stroke-linejoin:miter;stroke-miterlimit:4;stroke-opacity:1;stroke-dasharray:none"
       inkscape:transform-center-x="-23.412285"
       inkscape:transform-center-y="43.635123" />
    <path
       d="m 104.12147,50.800468 a 0.35355338,0.35355338 0 1 1 -0.7071,0 0.35355338,0.35355338 0 1 1 0.7071,0 z"
       sodipodi:ry="0.35355338"
       sodipodi:rx="0.35355338"
       sodipodi:cy="50.800468"
       sodipodi:cx="103.76792"
       id="path5061"
       style="fill:#000000;stroke:#000000;stroke-width:0.87240595;stroke-linecap:round;stroke-linejoin:round;stroke-miterlimit:4;stroke-opacity:1;stroke-dasharray:none;display:inline"
       sodipodi:type="arc"
       transform="matrix(0.80864616,-1.0362894,0.78804181,0.6149315,596.06597,1036.9224)"
       inkscape:transform-center-x="-25.158029"
       inkscape:transform-center-y="47.576019" />
    <path
       sodipodi:nodetypes="cscccsscc"
       id="path5063"
       d="m 724.45551,953.78172 c 0,0 2.82719,-1.76763 4.09555,-1.51292 0.9889,0.19859 2.15173,2.1275 2.15173,2.1275 l -3.25615,0.14988 5.27171,-0.14667 c 0,0 0.75477,6.87001 -1.57967,8.6334 -1.8391,1.38932 -4.74177,0.19126 -6.88286,-0.66209 -0.93055,-0.37088 -2.22986,-1.74003 -2.22986,-1.74003 l 2.42955,-6.84907 z"
       style="fill:#ffebcf;fill-opacity:1;stroke:#000000;stroke-width:1;stroke-linecap:round;stroke-linejoin:miter;stroke-miterlimit:4;stroke-opacity:1;stroke-dasharray:none"
       inkscape:transform-center-x="-32.577988"
       inkscape:transform-center-y="44.904463" />
    <path
       sodipodi:nodetypes="ccccccc"
       id="path5071"
       d="m 664.46595,1039.8508 -2.46995,4.9399 15.80774,7.4099 12.84379,0 0,-5.6809 -11.36182,0 -14.81976,-6.6689 z"
       style="fill:#000000;stroke:#000000;stroke-width:1;stroke-linecap:round;stroke-linejoin:round;stroke-miterlimit:4;stroke-opacity:1;stroke-dasharray:none" />
    <path
       id="path5075"
       d="m 696.28207,942.20252 -2.17256,1.15865"
       style="fill:none;stroke:#000000;stroke-width:1px;stroke-linecap:round;stroke-linejoin:round;stroke-opacity:1" />
    <path
       inkscape:transform-center-y="26.28408"
       inkscape:transform-center-x="21.573855"
       style="fill:#b3b3b3;stroke:#000000;stroke-width:1;stroke-linecap:round;stroke-linejoin:miter;stroke-miterlimit:4;stroke-opacity:1;stroke-dasharray:none"
       d="m 885.26055,946.9128 15.05384,5.50228 c 0,0 -0.0786,8.23199 -1.36197,12.18635 -3.72129,11.46586 -19.96467,29.44315 -19.96467,29.44315 l -38.7737,32.95362 -9.6428,-13.3152 33.58484,-29.38576 13.58398,-20.19426 1.97265,-5.7631 5.54788,-11.42708 -5e-5,0 z"
       id="path5091"
       sodipodi:nodetypes="ccscccccccc" />
    <path
       style="fill:#ffebcf;fill-opacity:1;stroke:#000000;stroke-width:1;stroke-linecap:round;stroke-linejoin:miter;stroke-miterlimit:4;stroke-opacity:1;stroke-dasharray:none;display:inline"
       d="m 897.7954,891.74585 -2.0487,5.82526 10.13213,1.95291 1.5272,-5.44215 6.42775,-2.33602 3.95352,0 0,-31.57877 -19.9919,0 0,31.57877 z"
       id="path5099"
       sodipodi:nodetypes="ccccccccc" />
    <path
       style="fill:#712e1e;fill-opacity:1;stroke:#000000;stroke-width:1;stroke-linecap:round;stroke-linejoin:miter;stroke-miterlimit:4;stroke-opacity:1;stroke-dasharray:none;display:inline"
       d="m 910.22268,870.36466 c 0.63808,1.77499 -0.78888,6.1908 -3.45625,21.38119 l 11.00424,0 0,-5.03853 c -1.49942,1.14058 -5.5791,2.08899 -8.0104,0 -1.8608,-0.52201 1.88368,-11.25146 1.49176,-17.96073 1.76299,-4.60772 1.72988,-7.67673 6.33161,-3.31638 3.63635,-2.25977 3.36935,-4.91318 1.9196,-7.47988 -2.00607,-3.55163 -6.58799,-4.40973 -9.69684,-4.87953 -1.03911,-0.15702 0.22362,1.34813 -0.78036,1.40407 -2.02987,0.1131 -2.72959,-1.39532 -5.46161,-1.19434 -1.05995,0.078 1.632,1.46149 0.56671,1.78084 -1.20667,0.36172 -5.08243,-0.14549 -7.08761,-0.0611 -1.00203,0.0422 1.74466,0.89795 0.90713,1.32967 -0.98322,0.50681 -6.16116,0.23949 -7.63745,0.67647 -1.11181,0.3291 0.66722,0.30219 1.68336,0.98538 0.79919,0.53733 -4.99999,1.458 -5.22524,1.66786 -0.52464,0.48878 4.16366,0.0982 3.72054,0.53882 -0.67114,0.66737 -7.9223,2.49731 -8.58247,3.08593 -1.0523,0.93828 4.47796,-0.43281 4.04026,0.30531 -0.39182,0.66074 -5.77953,2.39988 -6.74621,3.02179 -0.89026,0.57275 4.34431,-0.0344 4.22673,0.73709 -0.17342,1.13777 -3.20012,1.95136 -4.01314,3.04744 1.2678,-0.005 3.14018,-1.24112 4.73023,-0.49784 1.0981,0.51334 -3.98288,3.03144 -2.8128,3.79825 1.22317,0.8016 2.27229,-0.48969 3.76722,0.46267 1.42434,0.9074 -2.18081,1.65209 -0.643,2.721 1.27808,0.88836 2.2401,-1.10084 3.36673,0.35454 0.84424,1.09059 -2.08142,1.87118 -1.22285,2.44194 1.16968,0.77758 2.46596,-0.2787 3.95568,0.48014 0.97268,0.49549 -3.55905,1.80791 -2.53129,2.35098 1.03921,0.54913 3.24869,-0.90166 4.63041,-0.39397 1.43897,0.52874 -2.55142,2.22615 -1.08068,2.81264 0.75075,0.29938 2.92798,0.13827 4.11073,0.81883 1.06848,0.61481 1.1303,2.07905 2.08588,2.28168 3.33412,0.707 5.86833,-0.41238 6.05554,-0.30674 0.45603,0 0.27743,-14.65313 1.41422,-18.35627 0.49685,-1.61851 4.97962,1.00078 4.97962,1.00078 z"
       id="path5101"
       sodipodi:nodetypes="cccccccssssssssssssssscsssssssssssscsc" />
    <rect
       style="fill:#ffffff;fill-opacity:1;stroke:#000000;stroke-width:1;stroke-linecap:round;stroke-linejoin:round;stroke-miterlimit:4;stroke-opacity:1;stroke-dasharray:none;display:inline"
       id="rect5103"
       width="5.8742762"
       height="2.6771686"
       x="912.3512"
       y="870.40747" />
    <path
       style="fill:#ffebcf;fill-opacity:1;stroke:#000000;stroke-width:1;stroke-linecap:round;stroke-linejoin:miter;stroke-miterlimit:4;stroke-opacity:1;stroke-dasharray:none;display:inline"
       d="m 909.33879,870.68829 c 0,-2.91256 -3.38045,-2.58894 -3.07313,0 0.30731,2.58893 -0.61463,5.50148 0.61462,5.50148 1.22926,0 1.99754,-0.16181 1.84388,-1.9417"
       id="path5105" />
    <path
       style="fill:none;stroke:#000000;stroke-width:1;stroke-linecap:round;stroke-linejoin:miter;stroke-miterlimit:4;stroke-opacity:1;stroke-dasharray:none;display:inline"
       d="m 909.08515,870.58807 2.89883,0"
       id="path5107" />
    <path
       style="fill:#ffffff;stroke:#000000;stroke-width:1;stroke-linecap:round;stroke-linejoin:round;stroke-miterlimit:4;stroke-opacity:1;stroke-dasharray:none;display:inline"
       d="m 874.24558,966.42682 c 5.6308,-21.04547 12.24509,-38.11563 14.82584,-59.80208 l 6.50353,-9.40385 10.71057,2.2863 0.78588,11.13172 c -2.47865,21.03873 -3.16131,32.08813 -5.12457,39.68011 -2.34068,9.05151 -5.90565,13.18849 -8.28706,23.4807 -6.0495,-7.6831 -12.43947,-9.40458 -19.41419,-7.3729 z"
       id="path5109"
       sodipodi:nodetypes="cccccscc" />
    <path
       style="fill:none;stroke:#000000;stroke-width:1;stroke-linecap:round;stroke-linejoin:round;stroke-miterlimit:4;stroke-opacity:1;stroke-dasharray:none"
       d="m 905.17173,903.53001 0.7071,-4.06587 -10.07627,-2.12132 -1.76777,1.94455 11.13694,4.24264 z"
       id="path5111" />
    <path
       style="fill:#d40000;stroke:#000000;stroke-width:1;stroke-linecap:round;stroke-linejoin:round;stroke-miterlimit:4;stroke-opacity:1;stroke-dasharray:none"
       d="m 906.05561,899.46414 c 0,0 2.2981,2.47488 1.23744,4.41942 -1.06066,1.94455 -2.2981,0 -2.2981,0 l 1.06066,-4.41942 z"
       id="path5113" />
    <path
       style="fill:#d40000;stroke:#000000;stroke-width:1;stroke-linecap:round;stroke-linejoin:round;stroke-miterlimit:4;stroke-opacity:1;stroke-dasharray:none"
       d="m 907.6466,903.88356 c 0.43129,14.98811 -5.79902,15.70476 -19.09188,27.69848 l -6.68719,-2.38388 3.85876,-4.68718 c 11.30302,-9.92695 18.63413,-5.86692 20.5061,-19.74353 l 1.41421,-0.88389 z"
       id="path5115"
       sodipodi:nodetypes="cccccc" />
    <path
       sodipodi:nodetypes="ccsccsc"
       id="path5139"
       d="m 830.71925,1013.8387 -4.77951,2.7677 c 0,0 6.57349,9.6531 9.12806,14.8818 1.62483,3.3257 3.89845,10.3974 3.89845,10.3974 l 5.594,-1.7809 c 0,0 -3.05653,-8.5322 -5.13064,-12.5462 -2.48673,-4.8126 -8.71036,-13.7198 -8.71036,-13.7198 z"
       style="fill:#000000;stroke:#000000;stroke-width:1;stroke-linecap:round;stroke-linejoin:round;stroke-miterlimit:4;stroke-opacity:1;stroke-dasharray:none" />
    <path
       inkscape:transform-center-y="15.275448"
       inkscape:transform-center-x="-21.739015"
       style="fill:#ffffff;stroke:#000000;stroke-width:1;stroke-linecap:round;stroke-linejoin:miter;stroke-miterlimit:4;stroke-opacity:1;stroke-dasharray:none"
       d="m 889.99709,910.17492 1.93134,-6.15588 8.44495,-1.67561 12.64363,30.86181 30.21251,-4.16662 1.95615,10.26912 -33.93804,4.00291 -5.38216,-2.3587 -15.86838,-30.77703 z"
       id="path5117"
       sodipodi:nodetypes="ccccccccc" />
    <path
       inkscape:transform-center-y="27.273988"
       inkscape:transform-center-x="-43.44468"
       style="fill:none;stroke:#000000;stroke-width:1;stroke-linecap:round;stroke-linejoin:miter;stroke-miterlimit:4;stroke-opacity:1;stroke-dasharray:none"
       d="m 940.28735,939.8726 -1.98061,-10.09404"
       id="path5119" />
    <path
       inkscape:transform-center-y="29.813459"
       inkscape:transform-center-x="-46.9274"
       transform="matrix(0.18194677,-1.3018063,0.98995301,0.13836063,873.60945,1065.422)"
       sodipodi:type="arc"
       style="fill:#000000;stroke:#000000;stroke-width:0.87240595;stroke-linecap:round;stroke-linejoin:round;stroke-miterlimit:4;stroke-opacity:1;stroke-dasharray:none;display:inline"
       id="path5121"
       sodipodi:cx="103.76792"
       sodipodi:cy="50.800468"
       sodipodi:rx="0.35355338"
       sodipodi:ry="0.35355338"
       d="m 104.12147,50.800468 a 0.35355338,0.35355338 0 1 1 -0.7071,0 0.35355338,0.35355338 0 1 1 0.7071,0 z" />
    <path
       inkscape:transform-center-y="23.64437"
       inkscape:transform-center-x="-52.660013"
       style="fill:#ffebcf;fill-opacity:1;stroke:#000000;stroke-width:1;stroke-linecap:round;stroke-linejoin:miter;stroke-miterlimit:4;stroke-opacity:1;stroke-dasharray:none"
       d="m 943.20504,929.21369 c 0,0 1.56412,-2.94467 2.78984,-3.35847 0.95567,-0.32258 2.92734,0.76613 2.92734,0.76613 l -2.74469,1.75833 4.49164,-2.76362 c 0,0 4.08959,5.57152 2.95004,8.26608 -0.89768,2.12289 -4.01043,2.53719 -6.2913,2.86908 -0.9913,0.1442 -2.80119,-0.3915 -2.80119,-0.3915 l -1.32168,-7.14603 z"
       id="path5123"
       sodipodi:nodetypes="cscccsscc" />
    <path
       inkscape:transform-center-y="26.770923"
       inkscape:transform-center-x="-16.51394"
       style="fill:none;stroke:#000000;stroke-width:1px;stroke-linecap:round;stroke-linejoin:round;stroke-opacity:1"
       d="m 913.01722,933.27755 -1.30183,2.08993"
       id="path5133" />
    <path
       inkscape:transform-center-y="21.578705"
       inkscape:transform-center-x="17.277529"
       style="fill:#b3b3b3;stroke:#000000;stroke-width:1;stroke-linecap:round;stroke-linejoin:miter;stroke-miterlimit:4;stroke-opacity:1;stroke-dasharray:none"
       d="m 1083.2198,961.58345 14.1605,18.73989 c 0,0 0.8947,24.35016 -3.3538,35.42376 -1.0159,2.6477 -4.7293,6.8967 -7.5632,7.0048 l -43.568,1.6628 0.031,-14.2468 36.4691,-3.0976 -4.5844,-28.71313 2.2711,-5.65216 6.1374,-11.12156 3e-4,0 z"
       id="path5163"
       sodipodi:nodetypes="ccssccccccc" />
    <path
       inkscape:transform-center-y="53.57398"
       inkscape:transform-center-x="50.880465"
       style="fill:#000000;stroke:#000000;stroke-width:1;stroke-linecap:round;stroke-linejoin:round;stroke-miterlimit:4;stroke-opacity:1;stroke-dasharray:none"
       d="m 1042.9266,1010.3463 -5.5163,-0.2745 c 0,0 0.2713,11.6757 -0.4262,17.4531 -0.4437,3.6746 -2.3787,10.8465 -2.3787,10.8465 l 5.6636,1.5455 c 0,0 2.0716,-8.8233 2.5122,-13.3199 0.5284,-5.3913 0.1453,-16.2507 0.1453,-16.2507 z"
       id="path5165"
       sodipodi:nodetypes="ccsccsc" />
    <path
       inkscape:transform-center-y="36.156005"
       inkscape:transform-center-x="9.3692778"
       style="fill:none;stroke:#000000;stroke-width:0.77459669px;stroke-linecap:round;stroke-linejoin:miter;stroke-opacity:1"
       d="m 1079.337,1006.9242 2.0145,1.3043"
       id="path5167" />
    <path
       sodipodi:nodetypes="ccccccccc"
       id="path5171"
       d="m 1097.7954,907.74585 -2.0487,5.82526 10.1321,1.95291 1.5272,-5.44215 6.4278,-2.33602 3.9535,0 0,-31.57877 -19.9919,0 0,31.57877 z"
       style="fill:#ffebcf;fill-opacity:1;stroke:#000000;stroke-width:1;stroke-linecap:round;stroke-linejoin:miter;stroke-miterlimit:4;stroke-opacity:1;stroke-dasharray:none;display:inline" />
    <path
       sodipodi:nodetypes="cccccccssssssssssssssscsssssssssssscsc"
       id="path5173"
       d="m 1110.2227,886.36467 c 0.6381,1.77499 -0.7889,6.19079 -3.4563,21.38118 l 11.0043,0 0,-5.03853 c -1.4995,1.14058 -5.5791,2.08899 -8.0104,0 -1.8608,-0.52201 1.8837,-11.25146 1.4917,-17.96073 1.763,-4.60772 1.7299,-7.67673 6.3316,-3.31638 3.6364,-2.25977 3.3694,-4.91318 1.9196,-7.47988 -2.006,-3.55163 -6.588,-4.40973 -9.6968,-4.87953 -1.0391,-0.15702 1.4736,3.09813 0.4696,3.15407 -2.0298,0.1131 -3.9796,-3.14532 -6.7116,-2.94434 -1.0599,0.078 2.632,3.21149 1.5667,3.53084 -1.2066,0.36172 -6.0824,-1.89549 -8.0876,-1.81109 -1.002,0.0422 2.4947,2.64795 1.6572,3.07967 -0.9833,0.50681 -6.9112,-1.51051 -8.3875,-1.07353 -1.1118,0.3291 1.9172,1.80219 2.9334,2.48538 0.7992,0.53733 -6.25,-0.042 -6.4753,0.16786 -0.5246,0.48878 3.9137,2.09819 3.4706,2.53882 -0.6712,0.66737 -7.6723,0.49731 -8.3325,1.08593 -1.0523,0.93828 4.478,2.81719 4.0403,3.55531 -0.3919,0.66074 -5.7796,-0.85012 -6.7462,-0.22821 -0.8903,0.57275 4.0943,1.96564 3.9767,2.73709 -0.1734,1.13777 -2.9501,-0.0486 -3.7632,1.04744 1.2678,-0.005 2.8902,1.00888 4.4803,1.75216 1.0981,0.51334 -3.7329,0.78144 -2.5628,1.54825 1.2231,0.8016 3.7723,0.76031 5.2672,1.71267 1.4243,0.9074 -3.6808,0.40209 -2.143,1.471 1.2781,0.88836 2.9901,0.14916 4.1167,1.60454 0.8443,1.09059 -2.8314,0.62118 -1.9728,1.19194 1.1696,0.77758 2.7159,0.4713 4.2056,1.23014 0.9727,0.49549 -3.809,1.05791 -2.7812,1.60098 1.0392,0.54913 3.7486,0.59834 5.1304,1.10603 1.4389,0.52874 -3.0515,0.72615 -1.5807,1.31264 0.7507,0.29938 2.928,0.13827 4.1107,0.81883 1.0685,0.61481 1.1303,2.07905 2.0859,2.28168 3.3341,0.707 5.8683,-0.41238 6.0555,-0.30674 0.4561,0 0.2775,-14.65313 1.4143,-18.35627 0.4968,-1.61851 4.9796,1.00078 4.9796,1.00078 z"
       style="fill:#712e1e;fill-opacity:1;stroke:#000000;stroke-width:1;stroke-linecap:round;stroke-linejoin:miter;stroke-miterlimit:4;stroke-opacity:1;stroke-dasharray:none;display:inline" />
    <rect
       y="886.40747"
       x="1112.3512"
       height="2.6771686"
       width="5.8742762"
       id="rect5175"
       style="fill:#ffffff;fill-opacity:1;stroke:#000000;stroke-width:1;stroke-linecap:round;stroke-linejoin:round;stroke-miterlimit:4;stroke-opacity:1;stroke-dasharray:none;display:inline" />
    <path
       id="path5177"
       d="m 1109.3388,886.68829 c 0,-2.91256 -3.3805,-2.58894 -3.0731,0 0.3073,2.58893 -0.6147,5.50148 0.6146,5.50148 1.2292,0 1.9975,-0.16181 1.8439,-1.9417"
       style="fill:#ffebcf;fill-opacity:1;stroke:#000000;stroke-width:1;stroke-linecap:round;stroke-linejoin:miter;stroke-miterlimit:4;stroke-opacity:1;stroke-dasharray:none;display:inline" />
    <path
       id="path5179"
       d="m 1109.0851,886.58807 2.8989,0"
       style="fill:none;stroke:#000000;stroke-width:1;stroke-linecap:round;stroke-linejoin:miter;stroke-miterlimit:4;stroke-opacity:1;stroke-dasharray:none;display:inline" />
    <path
       sodipodi:nodetypes="cccccscc"
       id="path5181"
       d="m 1074.2456,982.42682 c 5.6308,-21.04547 12.2451,-38.11563 14.8258,-59.80208 l 6.5035,-9.40385 10.7106,2.2863 0.7859,11.13172 c -2.4787,21.03873 -3.1613,32.08813 -5.1246,39.68011 -2.3407,9.05151 -5.9056,13.18849 -8.287,23.4807 -6.0495,-7.6831 -12.4395,-9.40458 -19.4142,-7.3729 z"
       style="fill:#ffffff;stroke:#000000;stroke-width:1;stroke-linecap:round;stroke-linejoin:round;stroke-miterlimit:4;stroke-opacity:1;stroke-dasharray:none;display:inline" />
    <path
       id="path5183"
       d="m 1105.1717,919.53001 0.7071,-4.06587 -10.0762,-2.12132 -1.7678,1.94455 11.1369,4.24264 z"
       style="fill:none;stroke:#000000;stroke-width:1;stroke-linecap:round;stroke-linejoin:round;stroke-miterlimit:4;stroke-opacity:1;stroke-dasharray:none" />
    <path
       id="path5185"
       d="m 1106.0556,915.46414 c 0,0 2.2981,2.47488 1.2374,4.41942 -1.0606,1.94455 -2.298,0 -2.298,0 l 1.0606,-4.41942 z"
       style="fill:#d40000;stroke:#000000;stroke-width:1;stroke-linecap:round;stroke-linejoin:round;stroke-miterlimit:4;stroke-opacity:1;stroke-dasharray:none" />
    <path
       style="fill:#d40000;stroke:#000000;stroke-width:1;stroke-linecap:round;stroke-linejoin:round;stroke-miterlimit:4;stroke-opacity:1;stroke-dasharray:none"
       d="m 1107.6466,919.88356 c 0.4313,14.98811 -2.6886,19.67685 -19.5919,30.94848 -1.8957,0.73521 -3.7914,-0.98918 -5.6872,-2.13388 1.832,-1.66452 3.1093,-3.60642 3.6088,-5.93718 12.0136,-5.66339 18.3841,-8.11691 20.2561,-21.99353 l 1.4142,-0.88389 z"
       id="path5201"
       sodipodi:nodetypes="cccccc" />
    <path
       inkscape:transform-center-y="25.55172"
       inkscape:transform-center-x="3.6467536"
       style="fill:#ffffff;stroke:#000000;stroke-width:1;stroke-linecap:round;stroke-linejoin:miter;stroke-miterlimit:4;stroke-opacity:1;stroke-dasharray:none"
       d="m 1089.7,920.28336 6.0376,-2.27409 6.5253,5.61651 -16.5059,28.98045 21.9055,21.2204 -6.8799,7.87071 -24.0732,-24.25474 -1.4607,-5.69187 14.4512,-31.46731 z"
       id="path5191"
       sodipodi:nodetypes="ccccccccc" />
    <path
       inkscape:transform-center-y="49.996067"
       inkscape:transform-center-x="-5.5794135"
       style="fill:none;stroke:#000000;stroke-width:1;stroke-linecap:round;stroke-linejoin:miter;stroke-miterlimit:4;stroke-opacity:1;stroke-dasharray:none"
       d="m 1097.3183,978.18868 6.727,-7.78208"
       id="path5193" />
    <path
       inkscape:transform-center-y="54.303815"
       inkscape:transform-center-x="-5.7267958"
       transform="matrix(1.1371883,-0.6592473,0.5013218,0.86476997,957.35811,1003.0834)"
       sodipodi:type="arc"
       style="fill:#000000;stroke:#000000;stroke-width:0.87240595;stroke-linecap:round;stroke-linejoin:round;stroke-miterlimit:4;stroke-opacity:1;stroke-dasharray:none;display:inline"
       id="path5195"
       sodipodi:cx="103.76792"
       sodipodi:cy="50.800468"
       sodipodi:rx="0.35355338"
       sodipodi:ry="0.35355338"
       d="m 104.12147,50.800468 a 0.35355338,0.35355338 0 1 1 -0.7071,0 0.35355338,0.35355338 0 1 1 0.7071,0 z" />
    <path
       inkscape:transform-center-y="55.090688"
       inkscape:transform-center-x="-13.718265"
       style="fill:#ffebcf;fill-opacity:1;stroke:#000000;stroke-width:1;stroke-linecap:round;stroke-linejoin:miter;stroke-miterlimit:4;stroke-opacity:1;stroke-dasharray:none"
       d="m 1107.5095,973.91529 c 0,0 3.2829,-0.58375 4.3644,0.12628 0.8431,0.55358 1.2013,2.77724 1.2013,2.77724 l -3.0766,-1.07716 4.945,1.83298 c 0,0 -1.8659,6.65471 -4.69,7.41854 -2.2249,0.60182 -4.47,-1.59371 -6.1374,-3.18503 -0.7247,-0.69161 -1.4186,-2.44696 -1.4186,-2.44696 l 4.8119,-5.44589 z"
       id="path5197"
       sodipodi:nodetypes="cscccsscc" />
    <path
       inkscape:transform-center-y="28.481028"
       inkscape:transform-center-x="10.626227"
       style="fill:none;stroke:#000000;stroke-width:1px;stroke-linecap:round;stroke-linejoin:round;stroke-opacity:1"
       d="m 1085.7002,952.65094 -2.4481,0.26333"
       id="path5199" />
  </g>
</svg>
